<svg width="41" height="41" viewBox="0 0 41 41" fill="none" xmlns="http://www.w3.org/2000/svg">
<path d="M24.2583 4.91162C22.1628 4.91162 20.1531 5.74405 18.6714 7.22578C17.1897 8.70751 16.3573 10.7172 16.3573 12.8127V17.2116H12.1291C11.9168 17.2116 11.7448 17.3837 11.7448 17.596V23.4043C11.7448 23.6166 11.9168 23.7887 12.1291 23.7887H16.3573V35.7043C16.3573 35.9166 16.5293 36.0887 16.7416 36.0887H22.55C22.7622 36.0887 22.9343 35.9166 22.9343 35.7043V23.7887H27.1999C27.3763 23.7887 27.53 23.6687 27.5728 23.4976L29.0249 17.6892C29.0855 17.4466 28.9021 17.2116 28.652 17.2116H22.9343V12.8127C22.9343 12.4615 23.0738 12.1248 23.3221 11.8765C23.5704 11.6282 23.9072 11.4887 24.2583 11.4887H28.7C28.9122 11.4887 29.0843 11.3166 29.0843 11.1043V5.296C29.0843 5.08371 28.9122 4.91162 28.7 4.91162H24.2583Z" fill="white"/>
</svg>
