<svg width="32" height="31" viewBox="0 0 32 31" fill="none" xmlns="http://www.w3.org/2000/svg">
<path d="M15.9772 10.2374C12.884 10.2374 10.3765 12.5935 10.3765 15.4999C10.3765 18.4063 12.884 20.7624 15.9772 20.7624C19.0705 20.7624 21.578 18.4063 21.578 15.4999C21.578 12.5935 19.0705 10.2374 15.9772 10.2374Z" fill="white"/>
<path fill-rule="evenodd" clip-rule="evenodd" d="M6.96348 1.05883C12.9057 0.434817 19.0488 0.434817 24.991 1.05883C28.2626 1.40239 30.9013 3.82438 31.2853 6.90909C31.9958 12.6169 31.9958 18.383 31.2853 24.0907C30.9013 27.1754 28.2626 29.5974 24.991 29.941C19.0488 30.565 12.9057 30.565 6.96348 29.941C3.69194 29.5974 1.0532 27.1754 0.669222 24.0907C-0.0412705 18.383 -0.0412705 12.6169 0.669222 6.90909C1.0532 3.82438 3.69194 1.40239 6.96348 1.05883ZM24.5938 5.78458C23.6421 5.78458 22.8705 6.50953 22.8705 7.4038C22.8705 8.29807 23.6421 9.02302 24.5938 9.02302C25.5456 9.02302 26.3172 8.29807 26.3172 7.4038C26.3172 6.50953 25.5456 5.78458 24.5938 5.78458ZM7.79147 15.4999C7.79147 11.2521 11.4564 7.80861 15.9772 7.80861C20.4981 7.80861 24.163 11.2521 24.163 15.4999C24.163 19.7477 20.4981 23.1912 15.9772 23.1912C11.4564 23.1912 7.79147 19.7477 7.79147 15.4999Z" fill="white"/>
</svg>
