<svg width="85" height="60" viewBox="0 0 85 60" fill="none" xmlns="http://www.w3.org/2000/svg">
<path fill-rule="evenodd" clip-rule="evenodd" d="M85 0V50.9302H53.3533V55.5628H60.2706V60H24.6187V55.5767H31.9857V50.9302H0V0H85ZM51.0291 23.3302C51.2841 23.3302 51.5286 23.4324 51.7089 23.6143C51.8893 23.7961 51.9906 24.0428 51.9906 24.3C51.9906 24.5572 51.8893 24.8039 51.7089 24.9857C51.5286 25.1676 51.2841 25.2698 51.0291 25.2698H46.9202C46.6918 25.2694 46.4711 25.187 46.2975 25.0374C46.1238 24.8879 46.0086 24.6809 45.9725 24.4535L44.4438 16.7442L42.2648 24.8093C42.2334 24.9332 42.178 25.0496 42.1018 25.1519C42.0256 25.2541 41.9301 25.3401 41.8208 25.4049C41.7115 25.4698 41.5905 25.5122 41.4649 25.5297C41.3393 25.5472 41.2115 25.5395 41.0889 25.507C40.9535 25.4667 40.828 25.398 40.7207 25.3054C40.6134 25.2128 40.5267 25.0985 40.4663 24.9698L38.3219 20.1977L36.7586 24.0558C36.6869 24.2352 36.5636 24.3889 36.4046 24.497C36.2455 24.6052 36.0581 24.6629 35.8663 24.6628H33.0509C32.8506 24.6641 32.6549 24.6014 32.4921 24.4836C32.3293 24.3657 32.2077 24.1989 32.1448 24.007L30.6022 20.1977L28.4509 24.9698C28.4 25.086 28.3268 25.1909 28.2354 25.2785C28.1441 25.366 28.0365 25.4345 27.9188 25.4799C27.8012 25.5253 27.6757 25.5467 27.5498 25.543C27.4239 25.5393 27.2999 25.5104 27.1851 25.4581C27.0448 25.3942 26.9215 25.2976 26.8253 25.1763C26.7291 25.0551 26.6628 24.9126 26.6317 24.7605L24.4735 16.7442L21.3607 32.4698C21.3201 32.6886 21.2061 32.8866 21.0379 33.0307C20.8697 33.1748 20.6574 33.2561 20.4368 33.261C20.2161 33.2659 20.0005 33.1941 19.8262 33.0576C19.6518 32.9212 19.5293 32.7284 19.4792 32.5116L16.318 22.5907L15.6262 24.3419C15.5561 24.5224 15.4332 24.6771 15.2738 24.7855C15.1144 24.8939 14.9261 24.9509 14.7339 24.9488H8.16244C7.92062 24.9282 7.6953 24.8167 7.5311 24.6364C7.3669 24.4562 7.27578 24.2204 7.27578 23.9756C7.27578 23.7308 7.3669 23.495 7.5311 23.3147C7.6953 23.1345 7.92062 23.023 8.16244 23.0023H14.0906L15.5294 19.3674C15.5824 19.2345 15.6639 19.1149 15.7679 19.0173C15.8719 18.9196 15.9959 18.8462 16.1312 18.8023C16.2511 18.7633 16.3774 18.7487 16.503 18.7592C16.6285 18.7697 16.7507 18.8051 16.8626 18.8635C16.9745 18.9219 17.0738 19.002 17.1549 19.0993C17.2359 19.1965 17.2971 19.309 17.3348 19.4302L20.2055 28.4302L23.3805 12.3488C23.4184 12.1731 23.5027 12.0109 23.6245 11.8795C23.7462 11.7481 23.901 11.6523 24.0723 11.6023C24.1954 11.5697 24.3236 11.5619 24.4497 11.5794C24.5758 11.5968 24.6972 11.6391 24.8071 11.7039C24.9169 11.7687 25.013 11.8547 25.0899 11.957C25.1668 12.0593 25.2229 12.1758 25.2551 12.3L27.8007 21.7186L29.7445 17.3442C29.8156 17.1661 29.9379 17.0135 30.0957 16.9061C30.2535 16.7986 30.4395 16.7412 30.6299 16.7412C30.8203 16.7412 31.0063 16.7986 31.1641 16.9061C31.3218 17.0135 31.4442 17.1661 31.5153 17.3442L33.6804 22.6814H35.2022L37.3535 17.3651C37.448 17.1335 37.6259 16.9465 37.8516 16.8419C38.0847 16.7379 38.3492 16.7309 38.5874 16.8223C38.8257 16.9137 39.0186 17.0962 39.1244 17.3302L41.0889 21.7047L43.6137 12.3628C43.6594 12.1435 43.7786 11.9467 43.9511 11.8055C44.1237 11.6642 44.3391 11.5872 44.5614 11.5872C44.7836 11.5872 44.999 11.6642 45.1716 11.8055C45.3441 11.9467 45.4633 12.1435 45.509 12.3628L47.7295 23.3302H51.0291ZM69.8234 7.16512C70.9814 7.16374 72.1138 7.5089 73.0772 8.15693C74.0407 8.80496 74.7918 9.7267 75.2356 10.8055C75.6794 11.8843 75.7958 13.0716 75.5703 14.2172C75.3447 15.3628 74.7872 16.4151 73.9684 17.241C73.1495 18.0669 72.1061 18.6292 70.9703 18.8567C69.8345 19.0842 68.6572 18.9667 67.5876 18.5191C66.518 18.0715 65.6041 17.3139 64.9616 16.3422C64.3191 15.3705 63.9769 14.2284 63.9783 13.0605C63.9783 11.4969 64.5941 9.99742 65.6903 8.89182C66.7865 7.78623 68.2732 7.16512 69.8234 7.16512ZM58.1885 2.47674V42.1884H82.5305V2.47674H58.1885ZM56.5698 42.1884V2.47674H2.45565V42.1884H56.5698ZM72.0577 27.6907H72.6111V24.0698C72.601 23.9633 72.6131 23.8559 72.6465 23.7544C72.68 23.6529 72.7341 23.5596 72.8055 23.4805C72.8768 23.4014 72.9637 23.3381 73.0607 23.2949C73.1576 23.2516 73.2625 23.2292 73.3685 23.2292C73.4746 23.2292 73.5794 23.2516 73.6764 23.2949C73.7734 23.3381 73.8603 23.4014 73.9316 23.4805C74.0029 23.5596 74.0571 23.6529 74.0905 23.7544C74.124 23.8559 74.1361 23.9633 74.126 24.0698V27.6907H74.5964C74.7963 27.6907 74.9881 27.7708 75.1295 27.9134C75.2709 28.056 75.3503 28.2495 75.3503 28.4512V32.2256C75.3503 32.4273 75.2709 32.6207 75.1295 32.7633C74.9881 32.9059 74.7963 32.986 74.5964 32.986H74.126V36.6C74.1361 36.7065 74.124 36.8139 74.0905 36.9153C74.0571 37.0168 74.0029 37.1101 73.9316 37.1893C73.8603 37.2684 73.7734 37.3316 73.6764 37.3749C73.5794 37.4182 73.4746 37.4405 73.3685 37.4405C73.2625 37.4405 73.1576 37.4182 73.0607 37.3749C72.9637 37.3316 72.8768 37.2684 72.8055 37.1893C72.7341 37.1101 72.68 37.0168 72.6465 36.9153C72.6131 36.8139 72.601 36.7065 72.6111 36.6V32.986H72.0577C71.959 32.986 71.8613 32.9663 71.7702 32.928C71.6791 32.8897 71.5965 32.8336 71.527 32.7629C71.4575 32.6922 71.4026 32.6083 71.3655 32.5161C71.3284 32.4238 71.3097 32.3251 71.3106 32.2256V28.4512C71.3097 28.3516 71.3284 28.2529 71.3655 28.1607C71.4026 28.0684 71.4575 27.9846 71.527 27.9139C71.5965 27.8431 71.6791 27.787 71.7702 27.7487C71.8613 27.7104 71.959 27.6907 72.0577 27.6907ZM65.0228 27.6907H65.5693V23.9512C65.5693 23.7476 65.6494 23.5524 65.7921 23.4085C65.9348 23.2646 66.1284 23.1837 66.3302 23.1837C66.532 23.1837 66.7255 23.2646 66.8682 23.4085C67.0109 23.5524 67.0911 23.7476 67.0911 23.9512V27.6907H67.5614C67.7614 27.6907 67.9532 27.7708 68.0946 27.9134C68.236 28.056 68.3154 28.2495 68.3154 28.4512V32.2256C68.3154 32.4273 68.236 32.6207 68.0946 32.7633C67.9532 32.9059 67.7614 32.986 67.5614 32.986H67.098V36.7256C67.098 36.9291 67.0178 37.1243 66.8751 37.2682C66.7324 37.4122 66.5389 37.493 66.3371 37.493C66.1353 37.493 65.9417 37.4122 65.799 37.2682C65.6563 37.1243 65.5762 36.9291 65.5762 36.7256V32.986H65.0228C64.8338 32.9703 64.6577 32.8832 64.5294 32.7423C64.4012 32.6013 64.3304 32.4168 64.3311 32.2256V28.4512C64.3304 28.2599 64.4012 28.0754 64.5294 27.9345C64.6577 27.7935 64.8338 27.7065 65.0228 27.6907ZM69.7957 10.6605C70.2683 10.6591 70.7307 10.7993 71.1242 11.0632C71.5177 11.3272 71.8247 11.703 72.0061 12.1431C72.1876 12.5832 72.2355 13.0677 72.1436 13.5353C72.0517 14.0029 71.8243 14.4324 71.4901 14.7694C71.156 15.1065 70.7301 15.3358 70.2665 15.4285C69.803 15.5211 69.3225 15.4729 68.8862 15.2899C68.4498 15.1068 68.0772 14.7972 67.8155 14.4003C67.5538 14.0034 67.4148 13.5371 67.4162 13.0605C67.418 12.4245 67.6693 11.8151 68.1152 11.3654C68.561 10.9158 69.1652 10.6623 69.7957 10.6605ZM48.0408 44.8465H48.9054C49.0242 44.8416 49.1427 44.8615 49.2536 44.905C49.3644 44.9484 49.4651 45.0144 49.5495 45.0989C49.6339 45.1833 49.7001 45.2844 49.744 45.3959C49.7879 45.5073 49.8086 45.6267 49.8047 45.7465C49.8047 45.8616 49.7821 45.9756 49.7382 46.0819C49.6943 46.1881 49.63 46.2846 49.549 46.3657C49.468 46.4467 49.3718 46.5108 49.2661 46.5542C49.1604 46.5976 49.0472 46.6195 48.9331 46.6186H48.0684C47.8385 46.6186 47.6178 46.527 47.4546 46.3636C47.2913 46.2002 47.1987 45.9784 47.1969 45.7465C47.1969 45.5134 47.2887 45.2898 47.4521 45.1249C47.6156 44.9601 47.8373 44.8674 48.0684 44.8674L48.0408 44.8465ZM36.0669 44.8465H36.9039C37.0183 44.8465 37.1317 44.8693 37.2374 44.9134C37.3432 44.9576 37.4393 45.0224 37.5202 45.104C37.6011 45.1856 37.6653 45.2825 37.7091 45.3892C37.7529 45.4958 37.7755 45.6101 37.7755 45.7256C37.7737 45.9575 37.681 46.1793 37.5178 46.3427C37.3545 46.506 37.1339 46.5977 36.9039 46.5977H36.0946C35.9804 46.5986 35.8673 46.5767 35.7615 46.5333C35.6558 46.4899 35.5597 46.4258 35.4787 46.3447C35.3977 46.2636 35.3333 46.1672 35.2895 46.0609C35.2456 45.9547 35.223 45.8407 35.223 45.7256C35.2221 45.6099 35.244 45.4952 35.2875 45.3881C35.3309 45.281 35.3951 45.1837 35.4762 45.1019C35.5573 45.0201 35.6538 44.9554 35.7599 44.9115C35.8661 44.8677 35.9799 44.8456 36.0946 44.8465H36.0669ZM40.2173 44.8465H44.755C44.8736 44.8427 44.9916 44.8633 45.102 44.9071C45.2124 44.9508 45.3127 45.0169 45.3969 45.1011C45.4811 45.1854 45.5473 45.2861 45.5916 45.397C45.6358 45.508 45.6572 45.6269 45.6543 45.7465C45.6525 45.9784 45.5598 46.2002 45.3966 46.3636C45.2333 46.527 45.0127 46.6186 44.7827 46.6186H40.2104C39.9804 46.6186 39.7598 46.527 39.5965 46.3636C39.4332 46.2002 39.3406 45.9784 39.3388 45.7465C39.3388 45.5134 39.4306 45.2898 39.5941 45.1249C39.7575 44.9601 39.9792 44.8674 40.2104 44.8674L40.2173 44.8465Z" fill="#00AFA9"/>
</svg>
