<svg width="85" height="82" viewBox="0 0 85 82" fill="none" xmlns="http://www.w3.org/2000/svg">
<path fill-rule="evenodd" clip-rule="evenodd" d="M31.2143 30.9004C31.2143 30.4912 34.6056 27.0616 35.2165 26.8987L37.8177 29.5798C38.293 30.0555 38.6146 30.3744 39.1187 30.8401C39.9698 31.6904 45.2441 37.2775 45.9414 37.4634V41.4655C44.4403 41.8152 43.6376 41.7856 42.0995 41.7856C41.5263 41.7856 34.7558 34.682 33.8156 33.7418C33.3464 33.2726 31.2143 31.4552 31.2143 30.9004ZM17.9281 1.92689C17.9281 3.29282 20.6239 5.5029 21.9702 6.84924C23.1567 8.03574 34.8303 19.8627 35.5365 20.3357L26.0519 29.8999C25.2772 30.6714 25.2772 30.8897 24.6513 31.2209L15.6473 22.2964C15.1013 21.7504 14.6718 21.3231 14.1269 20.7752L13.2209 19.9203C13.1333 19.8323 13.0715 19.7589 12.9912 19.6702C12.8332 19.4961 12.781 19.4304 12.6077 19.2533L5.08334 11.7305C4.80247 11.4492 4.60075 11.2875 4.33833 11.035L4.17887 10.8744C4.16619 10.861 4.00443 10.6704 3.95563 10.6166C3.4254 10.0303 3.17488 9.92806 2.54705 9.73249C1.35863 9.36286 0 10.081 0 11.2114C0 12.8855 0.045339 12.62 1.24029 13.8126C1.78666 14.3578 2.21508 14.7874 2.76107 15.3334L21.0096 33.5816C22.175 34.7469 23.2116 36.343 24.8116 36.343C26.1026 36.343 27.1096 34.5467 28.013 33.942L35.7459 41.5762C36.6715 42.6006 39.7254 45.9476 40.8189 45.9476C43.2038 45.9476 44.7619 45.6121 46.7426 45.6283C50.9203 45.8081 49.7672 41.1067 50.1034 36.9835C50.1034 36.6877 50.6198 36.3284 49.2881 35.077L40.9542 26.7638C40.9227 26.7292 40.835 26.6282 40.8028 26.5947C40.2007 25.9658 38.2576 24.3973 38.2576 23.8571C38.2576 22.7333 42.5068 21.3835 39.6605 18.6124L34.4411 13.4272C34.4065 13.3961 34.3059 13.3081 34.272 13.2762C34.2482 13.2532 34.214 13.2205 34.191 13.1971C32.1353 11.1415 21.8807 0.57978 21.1829 0.289687L20.7238 0.160202C20.2462 0.0145794 19.9015 -0.14257 19.1177 0.23359C18.3519 0.600912 17.9281 1.47234 17.9281 1.92689Z" fill="#00AFA9"/>
<path fill-rule="evenodd" clip-rule="evenodd" d="M60.1877 51.2301C60.2119 51.6258 60.5811 51.5644 60.3291 53.1044C60.0006 55.1146 57.7801 56.1866 55.6511 55.2868C54.6694 54.8718 53.9155 53.7199 53.7868 52.8262C53.6988 52.2168 53.7572 51.6216 53.9816 51.1068C54.4062 50.1308 55.1009 49.5249 56.1387 49.0892C56.7123 48.8483 56.7627 48.8905 57.4558 48.9847C58.5966 49.1395 59.5537 49.6828 60.1097 50.6806C60.5227 51.4226 60.1589 50.7517 60.1877 51.2301ZM51.2236 52.5107C51.2236 55.7532 54.4523 58.2734 56.8265 58.2734C58.4663 58.2734 59.0784 57.8169 59.8676 57.6333C60.633 58.1458 79.1444 76.8251 81.7579 79.4432C82.4015 80.088 82.6908 80.6839 83.719 80.6839C84.4932 80.6839 84.9996 80.1775 84.9996 79.4033C84.9996 78.5195 83.2967 77.1402 82.3984 76.2418L63.5093 57.3532C61.4795 55.3233 62.0308 56.3484 62.7958 54.1583C63.4828 52.1914 63.3042 51.2558 62.299 49.4392C62.0946 49.07 62.2464 49.3024 61.9974 48.9405C60.1708 46.287 58.2735 46.7039 57.4109 46.471C57.1181 46.3919 57.2599 46.3569 56.9271 46.3946L56.5099 46.4856C53.9563 46.7696 52.867 47.8339 51.6666 50.0732C51.2997 50.7575 51.2236 51.5824 51.2236 52.5107Z" fill="#00AFA9"/>
<path fill-rule="evenodd" clip-rule="evenodd" d="M55.5459 63.8759V68.678C55.5459 69.677 56.0039 70.439 56.9864 70.439C58.1852 70.439 58.2828 69.5936 58.2712 68.3622C58.2632 67.4704 58.448 63.6439 58.0707 62.9515C57.3441 61.6174 55.5459 62.4574 55.5459 63.8759Z" fill="#00AFA9"/>
<path fill-rule="evenodd" clip-rule="evenodd" d="M64.8308 45.1473C65.7349 45.1473 67.4574 43.0809 68.3926 42.1457C68.9447 41.594 69.8088 40.9765 69.9084 40.2568L69.9226 40.0486C69.946 38.8214 69.1042 38.7441 68.1924 38.7441C67.7325 38.7441 65.4117 41.285 64.951 41.7457C63.6911 43.0049 63.5186 43.0583 63.5786 44.0553C63.6155 44.6666 63.5348 44.3393 63.7434 44.6313C63.9593 44.9329 64.3432 45.1473 64.8308 45.1473Z" fill="#00AFA9"/>
<path fill-rule="evenodd" clip-rule="evenodd" d="M55.5458 36.1831C55.5458 38.0966 55.0582 42.5859 56.506 42.5859C58.761 42.5859 58.2669 42.5536 58.2669 36.1831C58.2669 34.8057 56.5094 34.5413 55.9388 35.2955C55.887 35.3643 55.5458 36.0967 55.5458 36.1831Z" fill="#00AFA9"/>
<path fill-rule="evenodd" clip-rule="evenodd" d="M44.3413 63.2358C44.3413 64.2063 44.1307 64.9967 45.6219 64.9967C46.131 64.9967 46.1475 64.9156 46.4299 64.6843L49.6494 61.5006C49.8361 61.3346 50.1658 61.0653 50.308 60.8659C50.7133 60.2972 50.424 60.6526 50.424 59.8742C50.424 59.4504 50.7341 59.372 50.213 58.9762C48.7526 57.8677 47.4612 59.8757 45.8217 61.5152C45.4747 61.8622 44.3413 62.7517 44.3413 63.2358Z" fill="#00AFA9"/>
<path fill-rule="evenodd" clip-rule="evenodd" d="M39.0576 52.3508C39.0576 52.9809 39.5798 53.6314 40.3383 53.6314C41.9605 53.6314 46.1048 53.9323 46.7038 53.2737C47.1549 52.778 47.1549 51.9239 46.7038 51.4282C46.1048 50.7697 41.9605 51.0705 40.3383 51.0705C39.5798 51.0705 39.0576 51.721 39.0576 52.3508Z" fill="#00AFA9"/>
<path fill-rule="evenodd" clip-rule="evenodd" d="M66.9111 52.3506C66.9111 53.021 67.3395 53.6312 67.8717 53.6312H73.1541C75.0875 53.6312 74.5392 51.0703 73.4741 51.0703H67.8717C67.3376 51.0703 66.9111 51.853 66.9111 52.3506Z" fill="#00AFA9"/>
<path fill-rule="evenodd" clip-rule="evenodd" d="M69.6328 81.9646H70.1127V81.6445H69.6328V81.9646Z" fill="#00AFA9"/>
</svg>
