<svg width="86" height="68" viewBox="0 0 86 68" fill="none" xmlns="http://www.w3.org/2000/svg">
<path fill-rule="evenodd" clip-rule="evenodd" d="M62.314 47.1359H59.0122V25.2016C59.0124 24.7182 58.9173 24.2395 58.7324 23.7933C58.5457 23.3442 58.275 22.9354 57.9349 22.5892C57.5964 22.2423 57.1925 21.9671 56.7468 21.7797C56.3011 21.5922 55.8227 21.4964 55.3397 21.4978H46.2808V19.4909H58.2427V0H25.8126V19.4909H37.7046V21.4907H28.7226C28.2396 21.4893 27.7612 21.5852 27.3155 21.7726C26.8698 21.9601 26.4659 22.2353 26.1274 22.5822C25.7889 22.9296 25.5184 23.3381 25.3299 23.7863C25.145 24.2324 25.0499 24.7111 25.0501 25.1946V25.8987H20.8949C20.6941 25.8995 20.4955 25.941 20.311 26.0206C20.1264 26.1003 19.9597 26.2165 19.8207 26.3623C19.6816 26.5082 19.5732 26.6807 19.5018 26.8696C19.4303 27.0585 19.3974 27.2599 19.4049 27.4619V32.2079C19.4068 32.6045 19.5646 32.9842 19.8438 33.2639C20.123 33.5437 20.5009 33.7007 20.8949 33.7007H21.5944V33.7923C21.9232 38.0665 20.1954 40.8338 17.817 42.1365C16.7386 42.7119 15.5397 43.0208 14.3193 43.0378C13.0628 43.0593 11.8182 42.7894 10.6818 42.2491C7.96063 40.9817 5.83407 38.1228 5.89702 33.6866V18.484H7.60387C8.11471 18.484 8.60474 18.2802 8.96661 17.9173C9.32849 17.5543 9.53272 17.0618 9.53457 16.5476V9.43564C9.53272 8.92142 9.32849 8.4289 8.96661 8.06595C8.60474 7.70301 8.11471 7.49922 7.60387 7.49922H1.9237C1.4135 7.49922 0.924204 7.70324 0.563439 8.06638C0.202675 8.42953 0 8.92207 0 9.43564L0 16.5476C0.00184317 17.0606 0.20511 17.552 0.565476 17.9148C0.925841 18.2775 1.41407 18.4821 1.9237 18.484H3.49764V33.6655C3.42069 39.1931 6.16984 42.8195 9.66748 44.425C11.1289 45.1031 12.7244 45.4378 14.3333 45.4037C15.9326 45.3833 17.5037 44.9776 18.9152 44.2208C22.0631 42.5026 24.3296 38.9959 23.9518 33.6585H25.0431V61.0289C25.0422 61.5159 25.1367 61.9982 25.3212 62.4484C25.5057 62.8986 25.7766 63.3078 26.1183 63.6524C26.4601 63.9971 26.866 64.2706 27.3129 64.4571C27.7598 64.6437 28.2388 64.7397 28.7226 64.7397H30.8772V67.2395C30.8772 67.4412 30.9568 67.6346 31.0985 67.7772C31.2401 67.9198 31.4323 68 31.6327 68H34.032C34.1318 68.0009 34.2308 67.9819 34.3233 67.9441C34.4158 67.9063 34.4999 67.8504 34.5708 67.7797C34.6417 67.709 34.698 67.6249 34.7364 67.5322C34.7748 67.4394 34.7945 67.3399 34.7945 67.2395V64.7397H49.2608V67.2395C49.2608 67.4412 49.3404 67.6346 49.4821 67.7772C49.6237 67.9198 49.8159 68 50.0163 68H52.4226C52.6206 67.9963 52.8092 67.9145 52.9478 67.7723C53.0865 67.6301 53.1642 67.4388 53.1641 67.2395V64.7397H55.3327C56.3092 64.7379 57.2451 64.3461 57.9349 63.6504C58.6248 62.9546 59.0122 62.0118 59.0122 61.0289V60.5571C59.0122 60.3318 59.0122 60.0923 59.0122 59.8529V54.8675H60.5092C60.7728 56.5241 61.4304 58.0919 62.4259 59.4375C63.6215 61.0047 65.2755 62.1548 67.1547 62.7259C68.9724 63.2844 70.9066 63.3355 72.7509 62.8737C75.0536 62.3117 77.0938 60.969 78.529 59.0713C81.0823 55.6914 80.9704 51.1707 80.8655 47.1007C80.8655 46.3966 80.8655 45.7417 80.8655 44.8474V29.0815H80.9424C81.2207 29.0815 81.4876 28.9702 81.6844 28.7721C81.8811 28.574 81.9917 28.3054 81.9917 28.0253V26.3846H83.6706C84.2878 26.3827 84.8792 26.1351 85.3157 25.6957C85.7521 25.2564 85.9982 24.6611 86 24.0398V11.2664C85.9982 10.6451 85.7521 10.0498 85.3157 9.61044C84.8792 9.1711 84.2878 8.92346 83.6706 8.92161H74.8915C74.2743 8.92346 73.6828 9.1711 73.2464 9.61044C72.8099 10.0498 72.5639 10.6451 72.5621 11.2664V24.0398C72.5639 24.6611 72.8099 25.2564 73.2464 25.6957C73.6828 26.1351 74.2743 26.3827 74.8915 26.3846H76.5704V28.0253C76.5704 28.3054 76.6809 28.574 76.8777 28.7721C77.0745 28.9702 77.3414 29.0815 77.6197 29.0815H78.4241V44.8122C78.4241 45.3896 78.4241 46.2205 78.4731 47.1219C78.564 50.8327 78.6689 54.9168 76.6263 57.6208C75.5217 59.0842 73.951 60.1208 72.1773 60.5571C70.7485 60.9186 69.2486 60.8796 67.8402 60.4444C66.4482 60.0203 65.2244 59.1653 64.3426 58.001C63.6378 57.0397 63.1594 55.9297 62.9436 54.7549C63.2025 54.6317 63.4208 54.4361 63.5721 54.1913C63.7235 53.9465 63.8015 53.663 63.797 53.3747V48.6287C63.7951 48.2334 63.6383 47.8548 63.3606 47.5752C63.0829 47.2957 62.7067 47.1378 62.314 47.1359ZM34.5917 33.0951H37.3898V35.278H34.5917V33.0951ZM46.6865 45.7699H49.4846V47.9316H46.6865V45.8192V45.7699ZM40.6426 45.7699H43.4407V47.9316H40.6426V45.8192V45.7699ZM34.5917 45.7699H37.3898V47.9316H34.5917V45.8192V45.7699ZM46.6865 39.4325H49.4846V41.5943H46.6865V39.4677V39.4325ZM40.6426 39.4325H43.4407V41.5943H40.6426V39.4677V39.4325ZM34.5917 39.4325H37.3898V41.5943H34.5917V39.4677V39.4325ZM46.6865 33.0951H49.4846V35.278H46.6865V33.0951ZM40.6426 33.0951H43.4407V35.278H40.6426V33.0951ZM57.1585 47.1359H57.1095V50.9102H52.1428V28.6942H31.9125V50.9102H26.8899V25.2016C26.8881 24.9597 26.9358 24.7201 27.0298 24.4975C27.1235 24.2721 27.2588 24.0666 27.4285 23.8919C27.5982 23.7208 27.8 23.5854 28.0222 23.4935C28.2443 23.4016 28.4824 23.3551 28.7226 23.3567H55.3047C55.5442 23.3559 55.7817 23.4013 56.0042 23.4905C56.2293 23.5826 56.4338 23.7191 56.6056 23.8921C56.7774 24.065 56.9131 24.2709 57.0046 24.4975C57.0928 24.7216 57.1379 24.9605 57.1375 25.2016V47.1359H57.1585ZM57.1095 52.5157V54.8675H57.1585V61.0289C57.1616 61.3391 57.0844 61.6449 56.9346 61.9161C56.6043 62.354 56.1312 62.6606 55.5985 62.7822H28.149C27.8848 62.6876 27.6455 62.5335 27.4495 62.3315C27.2784 62.1607 27.1428 61.9572 27.0508 61.733V61.6837V52.5297L57.1095 52.5157ZM27.9322 9.10469H32.3112L33.8362 12.1959L37.2429 3.10531L39.0826 9.33002H41.3981L42.7342 11.6889L44.3781 8.99202H56.1231V2.11246H27.9322V9.08356V9.10469ZM56.1231 10.6045H45.2665L42.6852 14.8294L40.4747 10.9214H37.8934L37.068 8.10479L34.032 16.1955L31.3249 10.689H27.9322V17.3362H56.1231V10.6045Z" fill="#00AFA9"/>
</svg>
