<svg width="82" height="66" viewBox="0 0 82 66" fill="none" xmlns="http://www.w3.org/2000/svg">
<path d="M63.167 23.1943C62.7422 21.9443 62.2456 20.7199 61.6797 19.5271C61.5566 19.2701 61.3841 19.0399 61.1721 18.8496C60.96 18.6592 60.7125 18.5125 60.4437 18.4178C60.1749 18.323 59.8901 18.2822 59.6055 18.2975C59.3209 18.3128 59.0422 18.384 58.7851 18.507C58.528 18.63 58.2977 18.8025 58.1073 19.0145C57.9169 19.2265 57.7702 19.4739 57.6754 19.7426C57.5806 20.0113 57.5398 20.296 57.5551 20.5805C57.5704 20.865 57.6416 21.1437 57.7647 21.4007C58.0248 21.9341 58.2582 22.4809 58.4783 23.0276C59.2154 22.9788 59.9546 22.9699 60.6926 23.0009C61.5212 23.0216 62.3477 23.0951 63.167 23.221V23.1943ZM58.7317 36.7094H61.753C62.0254 36.7094 62.2867 36.8176 62.4793 37.0101C62.6719 37.2027 62.7801 37.4639 62.7801 37.7362V41.23H66.275C66.5451 41.2317 66.8036 41.3398 66.9946 41.5307C67.1856 41.7216 67.2936 41.9801 67.2954 42.2501V45.2705C67.2937 45.5411 67.1858 45.8003 66.995 45.9923C66.8042 46.1843 66.5457 46.2938 66.275 46.2973H62.7801V49.7044C62.7766 49.975 62.6671 50.2335 62.4751 50.4242C62.283 50.615 62.0238 50.7228 61.753 50.7245H58.7317C58.4617 50.7228 58.2031 50.6148 58.0121 50.4238C57.8211 50.2329 57.7131 49.9744 57.7113 49.7044V46.2973H54.2165C53.9446 46.2956 53.6844 46.1868 53.4922 45.9946C53.2999 45.8024 53.1911 45.5423 53.1894 45.2705V42.2501C53.1894 42.1153 53.216 41.9817 53.2676 41.8572C53.3192 41.7326 53.3948 41.6194 53.4902 41.524C53.5856 41.4287 53.6988 41.3531 53.8234 41.3015C53.9481 41.2499 54.0816 41.2233 54.2165 41.2233H57.7113V37.7362C57.7113 37.465 57.8186 37.2048 58.0098 37.0125C58.201 36.8201 58.4605 36.7111 58.7317 36.7094ZM16.7139 24.0411C15.1932 23.0809 14.5596 22.2875 14.9198 20.934C15.1003 20.2851 15.5313 19.7344 16.1178 19.4031C16.7044 19.0718 17.3986 18.9869 18.0478 19.1671L27.2717 24.4544L29.1258 24.8945C31.1519 25.5089 33.3121 25.5274 35.3485 24.9478L37.8162 24.3811L46.68 19.3004C47.33 19.1272 48.0222 19.2188 48.6048 19.555C49.1874 19.8912 49.6129 20.4447 49.7879 21.094C50.1481 22.4275 49.2811 23.4676 47.9938 24.2011L38.4831 29.6685C38.7899 37.0028 40.1105 45.3905 40.1105 52.4781C40.1105 54.6584 35.4418 55.0584 35.015 52.4781L33.3209 39.9298H31.3201L29.646 52.4781C29.3592 54.9184 24.4038 54.7851 24.5505 52.4781L26.1045 29.4551L16.7139 24.0677V24.0411ZM32.3405 12.7062C33.3526 12.7049 34.3422 13.0037 35.1844 13.5649C36.0265 14.126 36.6832 14.9242 37.0714 15.8586C37.4596 16.7929 37.5618 17.8214 37.3652 18.8138C37.1686 19.8063 36.6819 20.7182 35.9668 21.434C35.2516 22.1499 34.3401 22.6376 33.3476 22.8355C32.3551 23.0334 31.3262 22.9325 30.3911 22.5456C29.456 22.1587 28.6567 21.5033 28.0943 20.6621C27.5319 19.821 27.2317 18.832 27.2317 17.8202C27.2317 16.4651 27.7697 15.1653 28.7276 14.2065C29.6855 13.2476 30.985 12.708 32.3405 12.7062ZM57.638 28.4216C60.0201 28.0155 62.4643 28.1713 64.7756 28.8767C67.0869 29.5821 69.2014 30.8175 70.9505 32.4845C72.6996 34.1515 74.0349 36.2039 74.8501 38.4782C75.6653 40.7525 75.9377 43.1857 75.6456 45.5839C75.4922 46.8777 75.1716 48.1462 74.6919 49.3577L81.7149 54.8051C81.8693 54.9262 81.9699 55.1032 81.9949 55.2978C82.0199 55.4924 81.9672 55.6891 81.8483 55.8452L78.1734 60.5525C78.1139 60.6297 78.0398 60.6944 77.9553 60.7429C77.8708 60.7914 77.7775 60.8228 77.6808 60.8352C77.5842 60.8476 77.486 60.8407 77.392 60.8151C77.298 60.7895 77.2099 60.7456 77.1329 60.6858L70.41 55.4185C68.5708 57.0152 66.3809 58.1558 64.018 58.7478C61.6552 59.3397 59.186 59.3664 56.8109 58.8256C54.322 58.2615 52.0109 57.092 50.0825 55.4208C48.1541 53.7496 46.6681 51.6285 45.7564 49.2456C44.8446 46.8626 44.5353 44.2916 44.8558 41.7605C45.1763 39.2293 46.1167 36.8164 47.5937 34.7358V34.6891C49.9713 31.3629 53.567 29.1103 57.5979 28.4216H57.638ZM67.4021 33.6156C66.0788 32.6331 64.5725 31.9246 62.9716 31.5319C61.3707 31.1391 59.7075 31.07 58.0795 31.3285C56.4515 31.587 54.8916 32.1679 53.4912 33.0373C52.0908 33.9066 50.8782 35.0468 49.9246 36.3909C48.971 37.735 48.2954 39.256 47.9377 40.8647C47.58 42.4733 47.5472 44.1371 47.8414 45.7586C48.1356 47.38 48.7507 48.9264 49.6508 50.307C50.5508 51.6876 51.7176 52.8746 53.0827 53.7983H53.1294C55.1263 55.1943 57.4899 55.9721 59.9258 56.035C62.3617 56.0978 64.7623 55.4428 66.8285 54.1517C68.5462 53.0682 69.9706 51.5788 70.9761 49.8147C71.9816 48.0506 72.5373 46.0662 72.5939 44.0366C72.6506 42.007 72.2066 39.9947 71.3012 38.1772C70.3957 36.3598 69.0566 34.7932 67.4021 33.6156ZM53.3161 14.7132C53.6555 15.0735 54.1068 15.3084 54.5967 15.3799C55.0385 15.4462 55.49 15.3748 55.8898 15.1754C56.2895 14.9761 56.6182 14.6584 56.831 14.2657C57.0438 13.873 57.1304 13.4243 57.0791 12.9807C57.0278 12.537 56.841 12.1199 56.5442 11.7861C55.5161 10.6253 54.4013 9.54425 53.2094 8.55237C52.7943 8.21704 52.2704 8.04602 51.7374 8.07188C51.2044 8.09774 50.6995 8.31867 50.3188 8.6926C49.9382 9.06653 49.7084 9.56735 49.6732 10.0997C49.6381 10.632 49.8 11.1587 50.1281 11.5794C50.2219 11.6898 50.3245 11.7924 50.4349 11.8861C51.4746 12.7367 52.4407 13.6734 53.3228 14.6865L53.3161 14.7132ZM43.5986 7.66558C44.1293 7.8937 44.7289 7.90173 45.2654 7.68791C45.802 7.47409 46.2317 7.05594 46.4599 6.52544C46.688 5.99493 46.6961 5.39554 46.4822 4.85912C46.2683 4.32269 45.85 3.89318 45.3194 3.66506C43.8969 3.05474 42.4353 2.54019 40.9442 2.12486C40.4663 1.99172 39.9572 2.02648 39.5019 2.22333C39.0465 2.42019 38.6725 2.76723 38.4423 3.20653C38.212 3.64582 38.1395 4.15077 38.2367 4.63709C38.334 5.12341 38.5952 5.56166 38.9767 5.87868C39.2125 6.08965 39.4929 6.24464 39.797 6.33208C41.0922 6.69261 42.3621 7.13808 43.5986 7.66558ZM31.8336 5.33861C32.3894 5.29874 32.9087 5.04708 33.2842 4.63557C33.6598 4.22406 33.863 3.68411 33.8518 3.12717C33.8407 2.57024 33.6161 2.03883 33.2244 1.64264C32.8328 1.24644 32.3039 1.01571 31.7469 0.998047C30.1962 1.02564 28.6494 1.16379 27.1183 1.41143C26.816 1.43096 26.5212 1.51362 26.2528 1.65406C25.9844 1.79451 25.7485 1.98964 25.5602 2.22685C25.3719 2.46406 25.2354 2.7381 25.1595 3.03129C25.0837 3.32447 25.0702 3.63029 25.1198 3.92903C25.1694 4.22777 25.2812 4.51279 25.4478 4.7657C25.6144 5.01861 25.8322 5.23381 26.0871 5.39741C26.342 5.561 26.6284 5.66937 26.9278 5.71552C27.2272 5.76166 27.5329 5.74456 27.8253 5.66532C29.1489 5.45148 30.4863 5.33338 31.827 5.31194L31.8336 5.33861ZM20.1687 8.09897C20.6095 7.88027 20.963 7.51854 21.1715 7.07293C21.38 6.62731 21.4312 6.12416 21.3166 5.64573C21.2019 5.1673 20.9284 4.74188 20.5406 4.43903C20.1528 4.13618 19.6737 3.9738 19.1816 3.97844C18.8667 3.9842 18.557 4.05932 18.2745 4.19847C16.8744 4.8683 15.5237 5.63701 14.2328 6.49877C13.798 6.80595 13.491 7.26197 13.3701 7.78034C13.2493 8.29872 13.3228 8.84343 13.5769 9.31118C13.831 9.77894 14.248 10.1372 14.7487 10.3181C15.2495 10.499 15.7992 10.4899 16.2937 10.2926C16.4227 10.2392 16.5457 10.1721 16.6605 10.0926C17.7826 9.34607 18.9547 8.67773 20.1687 8.09231V8.09897ZM18.2745 4.19847L14.2328 6.49877L16.6738 10.0859L18.2745 4.19847ZM10.7113 15.4599C11.0585 15.0476 11.2395 14.5208 11.219 13.9823C11.1986 13.4438 10.9781 12.9322 10.6007 12.5474C10.2233 12.1626 9.71599 11.9322 9.17781 11.9011C8.63963 11.8701 8.1092 12.0407 7.69003 12.3795C7.57436 12.4697 7.4692 12.5726 7.37656 12.6862C6.38509 13.8772 5.47805 15.136 4.66207 16.4534C4.40013 16.8842 4.29615 17.3927 4.36795 17.8918C4.43975 18.3908 4.68286 18.8494 5.05564 19.189C5.42843 19.5286 5.9077 19.728 6.41141 19.7532C6.91511 19.7784 7.41191 19.6278 7.81675 19.3271C8.03418 19.1622 8.21954 18.9588 8.36365 18.727C9.06776 17.5837 9.85229 16.492 10.7113 15.4599ZM5.14894 26.088C5.27766 25.5969 5.2304 25.0764 5.01537 24.6165C4.80033 24.1566 4.43108 23.7865 3.97166 23.5703C3.51223 23.3542 2.99161 23.3055 2.50009 23.4329C2.00856 23.5603 1.57714 23.8557 1.28063 24.2678C1.12841 24.4906 1.01769 24.739 0.953826 25.0012C0.547742 26.4835 0.24247 27.9916 0.0401033 29.5151C-0.0686817 30.0801 0.0514944 30.6651 0.374194 31.1415C0.696894 31.6179 1.19568 31.9467 1.76084 32.0554C2.32599 32.1642 2.91121 32.0441 3.38775 31.7214C3.8643 31.3988 4.19313 30.9002 4.30192 30.3352C4.33215 30.2375 4.35226 30.137 4.36194 30.0352C4.53481 28.701 4.79775 27.38 5.14894 26.0813V26.088ZM4.48199 38.0896C4.39001 37.5795 4.11873 37.1191 3.7171 36.7913C3.31546 36.4636 2.80991 36.2901 2.2916 36.3022C1.7733 36.3143 1.27637 36.5111 0.890437 36.8572C0.504502 37.2032 0.254966 37.6758 0.186832 38.1896C0.156825 38.3974 0.156825 38.6085 0.186832 38.8163C0.439574 40.3425 0.80064 41.8487 1.26729 43.3236C1.42317 43.8187 1.75165 44.2415 2.19299 44.5149C2.63433 44.7884 3.15919 44.8944 3.6721 44.8136C4.18501 44.7329 4.65188 44.4707 4.98779 44.0749C5.32369 43.6791 5.50631 43.1759 5.50243 42.6568C5.499 42.4442 5.46532 42.2332 5.40239 42.0301C4.9996 40.7463 4.6854 39.4364 4.46199 38.1096L4.48199 38.0896ZM8.90388 49.2377C8.58504 48.842 8.13763 48.5705 7.63936 48.4703C7.14109 48.3701 6.62346 48.4476 6.1764 48.6893C5.72934 48.931 5.3811 49.3216 5.19218 49.7933C5.00326 50.265 4.9856 50.7879 5.14227 51.2713C5.20605 51.4123 5.28428 51.5464 5.37571 51.6713C6.242 52.9595 7.19811 54.1849 8.23693 55.3385C8.42917 55.5486 8.66094 55.7189 8.919 55.8395C9.17706 55.96 9.45635 56.0286 9.74093 56.0413C10.0255 56.054 10.3098 56.0106 10.5776 55.9134C10.8453 55.8163 11.0914 55.6674 11.3016 55.4752C11.5118 55.283 11.682 55.0513 11.8027 54.7933C11.9233 54.5353 11.9919 54.2561 12.0046 53.9716C12.0173 53.6871 11.9738 53.4029 11.8767 53.1352C11.7795 52.8675 11.6305 52.6216 11.4383 52.4114C10.5454 51.4084 9.71884 50.3482 8.9639 49.2377H8.90388ZM17.5742 57.5454C17.1517 57.295 16.6567 57.1949 16.17 57.2616C15.6833 57.3283 15.2336 57.5578 14.894 57.9127C14.5545 58.2676 14.3452 58.727 14.3002 59.2161C14.2552 59.7051 14.3772 60.195 14.6463 60.6058C14.8133 60.8773 15.0418 61.1056 15.3133 61.2726C16.6361 62.0843 18.0159 62.7996 19.4417 63.4129C19.9346 63.6566 20.5016 63.7046 21.0285 63.5471C21.5554 63.3896 22.003 63.0384 22.2812 62.5642C22.5594 62.0899 22.6475 61.5279 22.5278 60.9913C22.4081 60.4548 22.0894 59.9835 21.636 59.6724C21.489 59.5637 21.3301 59.472 21.1624 59.399C19.9271 58.8694 18.7322 58.2498 17.5876 57.5454H17.5742ZM28.9124 61.4993C28.4017 61.477 27.8995 61.6358 27.4946 61.9478C27.0897 62.2597 26.8081 62.7047 26.6996 63.2041C26.591 63.7035 26.6626 64.2252 26.9015 64.677C27.1404 65.1288 27.5314 65.4816 28.0053 65.6732C28.1386 65.7123 28.2746 65.7412 28.4122 65.7598C29.9604 65.9534 31.5211 66.0291 33.0808 65.9865C33.6557 65.9715 34.2011 65.7288 34.5969 65.3118C34.9928 64.8948 35.2068 64.3376 35.1917 63.7629C35.1767 63.1882 34.9339 62.643 34.5168 62.2472C34.0996 61.8515 33.5423 61.6376 32.9674 61.6526C31.6306 61.6753 30.2937 61.6084 28.9657 61.4526L28.9124 61.4993ZM40.8575 60.3391C40.31 60.516 39.8552 60.903 39.5932 61.415C39.4635 61.6685 39.3849 61.9452 39.3621 62.229C39.3393 62.5129 39.3726 62.7985 39.4602 63.0695C39.5478 63.3405 39.6879 63.5916 39.8726 63.8084C40.0572 64.0253 40.2828 64.2037 40.5364 64.3334C41.0486 64.5953 41.6439 64.6432 42.1914 64.4663C43.6636 63.9936 45.101 63.4188 46.4932 62.7461C46.9703 62.5229 47.3476 62.1307 47.5521 61.6455C47.7567 61.1602 47.7738 60.6163 47.6003 60.1191C46.999 59.6611 46.4223 59.1714 45.8729 58.6522C45.7531 58.6418 45.6326 58.6418 45.5128 58.6522C45.1959 58.6588 44.8842 58.7338 44.5991 58.8723C43.3858 59.4436 42.1358 59.9336 40.8575 60.3391Z" fill="#00AFA9"/>
</svg>
