<svg width="40" height="41" viewBox="0 0 40 41" fill="none" xmlns="http://www.w3.org/2000/svg">
<circle cx="20" cy="21" r="20" fill="white"/>
<path fill-rule="evenodd" clip-rule="evenodd" d="M6.12875 4.22971H11.2383V6.88466H8.27722C7.80206 6.88972 7.34776 7.07841 7.01144 7.41038C6.67513 7.74235 6.48349 8.19126 6.4775 8.66114V35.5816C6.48181 36.052 6.67291 36.5019 7.00958 36.8342C7.34626 37.1665 7.80153 37.3547 8.27722 37.3581H31.7425C32.2185 37.3563 32.6744 37.1686 33.0109 36.8358C33.3474 36.5031 33.5372 36.0522 33.539 35.5816V8.64812C33.5347 8.17828 33.344 7.72889 33.0081 7.39665C32.6721 7.06442 32.2177 6.87589 31.7425 6.87164H28.7814V4.22971H33.8713C34.435 4.23227 34.975 4.45488 35.3736 4.84911C35.7723 5.24334 35.9974 5.77728 36 6.3348V37.8949C35.9965 38.4522 35.7712 38.9856 35.3727 39.3797C34.9742 39.7737 34.4348 39.9966 33.8713 40H6.12875C5.8479 39.9987 5.57006 39.9428 5.31109 39.8353C5.05212 39.7278 4.81709 39.571 4.61942 39.3737C4.42175 39.1764 4.26531 38.9425 4.15903 38.6855C4.05275 38.4284 3.99872 38.1531 4.00002 37.8754V6.31528C4.00693 5.76089 4.23405 5.23144 4.63233 4.84123C5.03061 4.45102 5.5681 4.23137 6.12875 4.22971ZM10.2513 11.2868H17.6673V12.7509H10.2513V11.2868ZM10.2513 15.2269H15.1207V16.6911H10.2513V15.2269ZM26.2316 10.2456H27.6693C27.7343 10.2456 27.7986 10.2584 27.8585 10.2832C27.9184 10.3079 27.9727 10.3442 28.0183 10.3899C28.0639 10.4356 28.0999 10.4899 28.1242 10.5494C28.1484 10.609 28.1604 10.6727 28.1596 10.7369V12.5427H29.9922C30.1188 12.5443 30.2399 12.5944 30.33 12.6823C30.4202 12.7703 30.4725 12.8893 30.4758 13.0145V14.4396C30.475 14.5668 30.424 14.6886 30.3337 14.7792C30.2433 14.8697 30.1208 14.9218 29.9922 14.9244H28.1596V16.6911C28.1587 16.8191 28.1067 16.9416 28.0148 17.0318C27.923 17.122 27.7988 17.1726 27.6693 17.1726H26.2316C26.1021 17.1726 25.9779 17.122 25.8861 17.0318C25.7942 16.9416 25.7422 16.8191 25.7413 16.6911V14.9244H23.9153C23.7861 14.9244 23.6623 14.8736 23.571 14.7833C23.4796 14.693 23.4283 14.5705 23.4283 14.4428V13.0145C23.4283 12.8868 23.4796 12.7643 23.571 12.674C23.6623 12.5837 23.7861 12.5329 23.9153 12.5329H25.7413V10.7369C25.7413 10.6084 25.793 10.4851 25.8849 10.3941C25.9768 10.3032 26.1015 10.2522 26.2316 10.2522V10.2456ZM10.2513 32.3703H25.7808V33.8376H10.2513V32.3735V32.3703ZM10.2513 27.9551H30.4857V29.4192H10.2513V27.9551ZM10.2513 22.9022H15.5945L16.9961 20.9761L18.7136 23.4261L20.5955 19.7918L22.6255 23.7189L23.5468 23.0486L23.9844 22.9022H30.4726V24.3664H24.2213L22.0958 25.9183L20.5889 22.9901L18.8978 26.2437L16.9698 23.4976L16.3414 24.3599H10.2513V22.8957V22.9022ZM14.1995 2.92826H16.6112C16.6908 2.1411 17.0578 1.40962 17.6434 0.870656C18.229 0.331692 18.9931 0.0221717 19.7927 0C20.5911 0.0183915 21.3555 0.323314 21.9433 0.857904C22.5311 1.3925 22.9022 2.12026 22.9875 2.90548L25.8137 2.92826C25.9079 2.92826 25.9983 2.96528 26.065 3.03118C26.1316 3.09708 26.169 3.18645 26.169 3.27965V6.66016C26.169 6.75335 26.1316 6.84273 26.065 6.90863C25.9983 6.97453 25.9079 7.01155 25.8137 7.01155H14.1995C14.1052 7.01155 14.0149 6.97453 13.9482 6.90863C13.8816 6.84273 13.8441 6.75335 13.8441 6.66016V3.29266C13.8414 3.2452 13.8486 3.1977 13.8653 3.15313C13.8821 3.10856 13.9079 3.06789 13.9413 3.03367C13.9747 2.99945 14.0148 2.97243 14.0592 2.95429C14.1037 2.93615 14.1514 2.92728 14.1995 2.92826ZM18.4767 4.36961C18.6983 4.68209 18.9944 4.93576 19.3387 5.10818C19.6132 5.18299 19.9031 5.18299 20.1777 5.10818C20.6192 4.87154 20.9722 4.50084 21.1845 4.05076C21.206 3.93482 21.217 3.81723 21.2174 3.69937C21.2307 3.50456 21.2034 3.30912 21.1372 3.12518C21.071 2.94123 20.9672 2.77271 20.8324 2.63006C20.6976 2.48741 20.5346 2.37367 20.3535 2.29592C20.1724 2.21816 19.977 2.17804 19.7796 2.17804C19.5821 2.17804 19.3868 2.21816 19.2057 2.29592C19.0246 2.37367 18.8615 2.48741 18.7267 2.63006C18.5919 2.77271 18.4882 2.94123 18.422 3.12518C18.3557 3.30912 18.3284 3.50456 18.3418 3.69937C18.341 3.92314 18.3869 4.14466 18.4767 4.35009V4.36961Z" fill="#775CA6"/>
</svg>
