<svg width="54" height="40" viewBox="0 0 54 40" fill="none" xmlns="http://www.w3.org/2000/svg">
<circle cx="20" cy="20" r="20" fill="white"/>
<path d="M3.90039 17.9973H52.1389V23.8268H3.90039V13.8726" fill="#775CA6"/>
<path d="M53.04 24.7278H3V13.8729C3 13.3751 3.40292 12.9722 3.90072 12.9722C4.39852 12.9722 4.80145 13.3751 4.80145 13.8729V17.0969H53.04V24.7278ZM4.80145 22.9264H51.2385V18.8983H4.80145V22.9264Z" fill="#775CA6"/>
<path d="M48.71 28.7858H6.18686C5.68906 28.7858 5.28613 28.3829 5.28613 27.8851C5.28613 27.3873 5.68906 26.9844 6.18686 26.9844H48.71C49.2078 26.9844 49.6107 27.3873 49.6107 27.8851C49.6107 28.3829 49.2072 28.7858 48.71 28.7858Z" fill="#775CA6"/>
<path d="M6.18686 31.6429C5.68906 31.6429 5.28613 31.24 5.28613 30.7422V23.827C5.28613 23.3292 5.68906 22.9263 6.18686 22.9263C6.68466 22.9263 7.08758 23.3292 7.08758 23.827V30.7422C7.08758 31.24 6.68406 31.6429 6.18686 31.6429Z" fill="#775CA6"/>
<path d="M48.7093 31.6429C48.2115 31.6429 47.8086 31.24 47.8086 30.7422V23.827C47.8086 23.3292 48.2115 22.9263 48.7093 22.9263C49.2071 22.9263 49.61 23.3292 49.61 23.827V30.7422C49.61 31.24 49.2065 31.6429 48.7093 31.6429Z" fill="#775CA6"/>
<path d="M6.17202 34.9998C7.4266 34.9998 8.44364 33.9828 8.44364 32.7282C8.44364 31.4736 7.4266 30.4565 6.17202 30.4565C4.91743 30.4565 3.90039 31.4736 3.90039 32.7282C3.90039 33.9828 4.91743 34.9998 6.17202 34.9998Z" fill="#775CA6"/>
<path d="M48.6955 34.9998C49.95 34.9998 50.9671 33.9828 50.9671 32.7282C50.9671 31.4736 49.95 30.4565 48.6955 30.4565C47.4409 30.4565 46.4238 31.4736 46.4238 32.7282C46.4238 33.9828 47.4409 34.9998 48.6955 34.9998Z" fill="#775CA6"/>
<path d="M17.8788 17.4558H8.41581C7.75288 17.4558 7.21484 16.9178 7.21484 16.2548C7.21484 15.5919 7.75288 15.0539 8.41581 15.0539H16.6778V6.20096C16.6778 5.53803 17.2159 5 17.8788 5C18.5417 5 19.0798 5.53803 19.0798 6.20096V16.2548C19.0798 16.9184 18.5423 17.4558 17.8788 17.4558Z" fill="#775CA6"/>
<path d="M3.90072 12.7893C3.40292 12.7893 3 12.3864 3 11.8886V11.0887C3 10.5909 3.40292 10.188 3.90072 10.188C4.39852 10.188 4.80145 10.5909 4.80145 11.0887V11.8886C4.80145 12.3864 4.39792 12.7893 3.90072 12.7893Z" fill="#775CA6"/>
<path d="M49.4868 21.0132H48.1357" stroke="white" stroke-miterlimit="10" stroke-linecap="round" stroke-linejoin="round"/>
<path d="M46.0342 21.0132H41.6807" stroke="white" stroke-miterlimit="10" stroke-linecap="round" stroke-linejoin="round"/>
<path d="M11.7194 14.5076C14.0043 14.5076 15.8567 12.6552 15.8567 10.3702C15.8567 8.08525 14.0043 6.23291 11.7194 6.23291C9.43437 6.23291 7.58203 8.08525 7.58203 10.3702C7.58203 12.6552 9.43437 14.5076 11.7194 14.5076Z" fill="#775CA6"/>
<path d="M50.3384 9.83612C50.3384 8.84112 49.532 8.03467 48.537 8.03467H21.3483C20.3533 8.03467 19.5469 8.84112 19.5469 9.83612V14.9949C19.5469 15.9899 20.3533 16.7963 21.3483 16.7963H48.5364C49.5314 16.7963 50.3378 15.9899 50.3378 14.9949V9.83612H50.3384Z" fill="#775CA6"/>
</svg>
