<svg width="50" height="50" viewBox="0 0 50 50" fill="none" xmlns="http://www.w3.org/2000/svg">
<circle cx="25" cy="30" r="20" fill="white"/>
<path d="M24.502 0.801758C26.6796 0.801758 28.4385 2.56462 28.4385 4.73829C28.4385 6.91595 26.6756 8.67482 24.502 8.67482C22.3283 8.67482 20.5654 6.91196 20.5654 4.73829C20.5654 2.56462 22.3283 0.801758 24.502 0.801758ZM20.3301 18.6737L23.453 21.8405L21.1517 24.1418L22.9984 26.0402L23.6245 26.6824C24.7014 28.1062 23.0821 29.7973 21.6862 28.6207L17.5861 24.4409C16.9679 23.5874 16.7805 22.6461 17.4186 21.5772L20.3301 18.6657V18.6737ZM28.6698 18.6737L25.5469 21.8405L27.8482 24.1418L26.0016 26.0402L25.3754 26.6824C24.2986 28.1062 25.9179 29.7973 27.3138 28.6207L31.4099 24.4369C32.0281 23.5834 32.2155 22.6421 31.5774 21.5732L28.6658 18.6617V18.6737H28.6698ZM33.8587 17.6327C33.2166 18.0994 32.403 17.88 31.8526 17.3097L28.7097 14.0193V17.0145H20.2783V14.0272L17.1474 17.3137C16.605 17.88 15.7834 18.0994 15.1412 17.6367C14.4991 17.1701 14.2518 16.181 14.8182 15.6306L18.9422 11.6262C19.6122 10.9761 20.9045 9.43261 21.7779 9.43261H27.2978C28.1115 9.43261 29.3718 10.9642 30.0578 11.6262L34.1818 15.6306C34.7481 16.177 34.4929 17.1661 33.8587 17.6327Z" fill="#775CA6"/>
<path fill-rule="evenodd" clip-rule="evenodd" d="M36.1158 41.6119H36.4229C36.5371 41.6119 36.6466 41.6572 36.7274 41.738C36.8082 41.8188 36.8536 41.9283 36.8536 42.0425V45.4201C36.8536 45.5343 36.8082 45.6438 36.7274 45.7246C36.6466 45.8053 36.5371 45.8507 36.4229 45.8507H26.5695C26.4552 45.8507 26.3457 45.8053 26.2649 45.7246C26.1842 45.6438 26.1388 45.5343 26.1388 45.4201V42.0266C26.1388 41.9124 26.1842 41.8028 26.2649 41.7221C26.3457 41.6413 26.4552 41.5959 26.5695 41.5959C29.4565 41.5959 33.3484 41.3686 36.1158 41.5959V41.6119ZM35.7849 40.7426H26.5734C26.4617 40.7354 26.3572 40.6845 26.2826 40.6009C26.208 40.5174 26.1692 40.4078 26.1747 40.2959C26.2106 39.4984 26.2823 38.7288 26.3621 37.9313C26.4418 37.2654 26.5096 36.6832 26.5974 36.1767C26.671 35.697 26.7953 35.2265 26.9682 34.7731C27.1453 34.3307 27.3886 33.9179 27.69 33.5489C28.0611 33.0941 28.4765 32.6773 28.9301 32.3047C29.2611 32.0296 29.5562 31.7943 29.9071 31.5471L30.258 31.3357L31.6337 30.5701C32.4775 30.1506 33.2951 29.6805 34.0821 29.1625C35.0881 28.4488 36.0361 27.6568 36.9174 26.7938C37.6232 26.1837 38.6201 25.3862 39.2461 24.7362C39.6092 24.2929 40.0335 23.9036 40.5062 23.5798C40.8759 23.3096 41.3246 23.1694 41.7823 23.181C41.8853 23.1906 41.9862 23.2162 42.0813 23.2568C42.1629 23.2932 42.2393 23.3401 42.3086 23.3964L42.3445 23.4323C42.4247 23.5062 42.4909 23.594 42.5399 23.6915C42.584 23.7765 42.6188 23.8661 42.6436 23.9586C42.7156 24.3226 42.6739 24.6999 42.524 25.0393C42.3773 25.4055 42.1575 25.7379 41.878 26.0162L36.0122 32.5639C35.9554 32.6264 35.9186 32.7045 35.9067 32.7881C35.8947 32.8717 35.908 32.9569 35.9449 33.0329C35.9818 33.1088 36.0406 33.1719 36.1137 33.2142C36.1868 33.2564 36.2709 33.2757 36.3551 33.2697C36.4582 33.2641 36.5558 33.2217 36.6302 33.1501C38.5603 30.9755 40.5036 28.8089 42.4602 26.6503C42.6035 26.5124 42.7367 26.3645 42.8589 26.2077C42.9695 26.0664 43.0695 25.9171 43.158 25.761C44.1788 24.1381 45.6862 19.8195 46.5275 17.8137L46.6073 17.6901C46.7617 17.523 46.9373 17.3769 47.1297 17.2554H47.1536C47.3417 17.1399 47.5525 17.0665 47.7717 17.0401C47.8721 17.024 47.9744 17.024 48.0747 17.0401C48.1638 17.0601 48.2497 17.0923 48.33 17.1358L48.3738 17.1597C48.4825 17.2258 48.5784 17.3109 48.6569 17.4109C48.7281 17.5169 48.7869 17.6306 48.8324 17.7499C49.0057 18.2834 49.0548 18.8494 48.976 19.4048C48.8803 20.1346 48.7079 20.8524 48.4615 21.5461C47.9312 23.3605 47.4168 25.1908 46.9223 27.0211C46.6984 28.0165 46.3737 28.9865 45.9533 29.9161C45.3896 30.9805 44.6898 31.9671 43.8718 32.851C42.9347 33.9277 42.0135 34.8967 41.1163 35.7939C40.2191 36.6911 39.3299 37.5325 38.4685 38.346L36.1358 40.587C36.0954 40.6357 36.0448 40.6748 35.9876 40.7017C35.9304 40.7286 35.868 40.7425 35.8048 40.7426H35.7849ZM22.4223 40.7426H13.2308C13.1676 40.7425 13.1052 40.7286 13.048 40.7017C12.9908 40.6748 12.9402 40.6357 12.8999 40.587L11.7833 39.4984L10.5511 38.33C9.67387 37.5006 8.78064 36.6552 7.91931 35.7939C7.02209 34.9007 6.10892 33.9357 5.17981 32.867C4.35354 31.9828 3.64578 30.9949 3.07434 29.9281C2.65541 28.9983 2.33208 28.0283 2.10933 27.0331C1.6029 25.1948 1.10046 23.3485 0.554155 21.5461C0.307149 20.8526 0.134708 20.1348 0.0397504 19.4048C-0.0427937 18.8514 0.00360554 18.2864 0.17533 17.7539C0.219185 17.6326 0.278134 17.5174 0.350786 17.4109C0.423355 17.3032 0.5153 17.2099 0.621944 17.1358L0.669796 17.1119C0.749205 17.0657 0.835296 17.032 0.925004 17.0122C1.02537 16.9959 1.1277 16.9959 1.22806 17.0122C1.44749 17.0373 1.65861 17.1108 1.84615 17.2275H1.87406C2.06885 17.352 2.24591 17.5022 2.40043 17.6741L2.48018 17.8017C3.31758 19.7955 4.84484 24.158 5.85371 25.7491C5.9419 25.9025 6.04331 26.0479 6.15677 26.1837C6.27876 26.3346 6.41207 26.4759 6.55554 26.6064C8.54935 28.6002 10.4315 31.0327 12.3894 33.1063C12.4686 33.178 12.5717 33.2177 12.6785 33.2177C12.7854 33.2177 12.8884 33.178 12.9676 33.1063C13.0111 33.0701 13.0464 33.025 13.0712 32.9742C13.0959 32.9233 13.1096 32.8677 13.1112 32.8112C13.1152 32.7557 13.1081 32.6999 13.0903 32.6472C13.0725 32.5945 13.0443 32.5458 13.0075 32.5041L7.13773 26.0162C6.85185 25.7506 6.6238 25.4289 6.46781 25.0712C6.31398 24.7329 6.27207 24.3543 6.34818 23.9905C6.37125 23.8974 6.40609 23.8076 6.45186 23.7234C6.49979 23.6241 6.56609 23.5348 6.64725 23.4602C6.72569 23.3899 6.81445 23.3321 6.91044 23.2887C7.00483 23.2499 7.10413 23.2244 7.20552 23.2129H7.22945C7.68715 23.2013 8.13583 23.3415 8.50549 23.6117C8.97771 23.9346 9.40079 24.3241 9.76159 24.7681C10.4355 25.4739 11.3566 26.1518 12.0904 26.8377C12.9733 27.6988 13.9212 28.4907 14.9256 29.2064C15.7155 29.7087 16.5344 30.1641 17.378 30.5701L18.7497 31.3118L19.0966 31.5272C19.4475 31.7744 19.7466 32.0136 20.0736 32.2848C20.5293 32.6564 20.9462 33.0732 21.3177 33.5289C21.6179 33.8981 21.8599 34.3109 22.0355 34.7531C22.2066 35.2072 22.3309 35.6775 22.4064 36.1568C22.4901 36.6632 22.5619 37.2454 22.6377 37.9113C22.7214 38.7089 22.7852 39.4745 22.8291 40.272C22.8356 40.3846 22.7973 40.4952 22.7226 40.5796C22.6479 40.664 22.5428 40.7154 22.4303 40.7226L22.4223 40.7426ZM12.8161 41.6039C15.5556 41.8471 19.5632 41.6039 22.4423 41.6039C22.5565 41.6039 22.666 41.6493 22.7468 41.73C22.8275 41.8108 22.8729 41.9203 22.8729 42.0346V45.4121C22.8729 45.5263 22.8275 45.6358 22.7468 45.7166C22.666 45.7974 22.5565 45.8427 22.4423 45.8427H12.5888C12.5325 45.8427 12.4766 45.8316 12.4246 45.8099C12.3726 45.7882 12.3254 45.7564 12.2857 45.7164C12.246 45.6763 12.2147 45.6288 12.1935 45.5766C12.1723 45.5244 12.1616 45.4684 12.1621 45.4121V42.0266C12.1616 41.9702 12.1723 41.9143 12.1935 41.8621C12.2147 41.8098 12.246 41.7623 12.2857 41.7223C12.3254 41.6822 12.3726 41.6505 12.4246 41.6288C12.4766 41.6071 12.5325 41.5959 12.5888 41.5959H12.8161V41.6039Z" fill="#775CA6"/>
</svg>
