<svg width="40" height="44" viewBox="0 0 40 44" fill="none" xmlns="http://www.w3.org/2000/svg">
<circle cx="20" cy="24" r="20" fill="white"/>
<path fill-rule="evenodd" clip-rule="evenodd" d="M10.9549 32.3261V21.0356H16.0457C18.2012 21.4211 20.3567 22.5893 22.5092 23.9442H26.4526C28.2315 24.051 29.1773 25.8655 27.4369 27.0544C26.0553 28.0714 24.2289 28.0121 22.355 27.8431C21.0623 27.7808 21.009 29.5153 22.355 29.5213C22.8235 29.5598 23.3305 29.4471 23.7752 29.4471C26.1116 29.4471 28.0358 28.9994 29.2129 27.1523L29.8059 25.7736L35.6824 22.862C38.6206 21.8955 40.7228 24.9671 38.5436 27.1078C34.4481 30.1011 30.0675 32.6832 25.4653 34.8166C22.2216 36.7883 18.981 36.7201 15.7433 34.8166L10.9549 32.3261ZM23.1408 3.32908C24.6944 1.7132 25.7795 0.31375 28.1811 0.038012C32.6493 -0.466026 36.8002 4.12961 34.5261 8.65409L34.4846 8.73415H33.5951V6.84252C33.593 6.20941 33.3403 5.60288 32.8924 5.15548C32.6703 4.93208 32.406 4.75515 32.1148 4.63501C31.8236 4.51487 31.5114 4.45393 31.1965 4.45575H28.611C28.2963 4.45641 27.9848 4.51907 27.6944 4.64015C27.4039 4.76122 27.1401 4.93835 26.9181 5.16141C26.6954 5.38356 26.5188 5.64744 26.3982 5.93794C26.2776 6.22843 26.2155 6.53985 26.2154 6.85438V8.74304H24.3238C23.6878 8.74547 23.0789 9.00036 22.6308 9.45166C22.408 9.67372 22.2313 9.93757 22.1107 10.2281C21.9901 10.5186 21.928 10.8301 21.9281 11.1446V13.733C21.9281 14.048 21.9901 14.3599 22.1107 14.6509C22.2312 14.9419 22.4079 15.2064 22.6306 15.4291C22.8534 15.6518 23.1178 15.8285 23.4088 15.9491C23.6998 16.0696 24.0117 16.1316 24.3267 16.1316H26.2154V17.792L23.1437 20.8222L20.3567 18.1389C17.0034 14.9101 11.536 10.8481 11.3552 5.81073C11.2306 2.28543 14.0117 0.0261523 17.2139 0.0646964C20.075 0.10324 21.2788 1.52641 23.1437 3.32612L23.1408 3.32908ZM3 19.9475H9.425V33.4705H3V19.9475Z" fill="#775CA6"/>
<path fill-rule="evenodd" clip-rule="evenodd" d="M28.6113 5.9645H31.1968C31.4327 5.9645 31.6589 6.05821 31.8257 6.22502C31.9925 6.39183 32.0862 6.61807 32.0862 6.85397V10.2636H35.4959C35.7318 10.2636 35.958 10.3574 36.1249 10.5242C36.2917 10.691 36.3854 10.9172 36.3854 11.1531V13.7385C36.3854 13.9744 36.2917 14.2007 36.1249 14.3675C35.958 14.5343 35.7318 14.628 35.4959 14.628H32.0744V17.9309C32.0744 18.1668 31.9807 18.3931 31.8138 18.5599C31.647 18.7267 31.4208 18.8204 31.1849 18.8204H28.6113C28.3754 18.8204 28.1492 18.7267 27.9824 18.5599C27.8156 18.3931 27.7219 18.1668 27.7219 17.9309V14.5954H24.324C24.0881 14.5954 23.8619 14.5017 23.6951 14.3349C23.5283 14.1681 23.4346 13.9418 23.4346 13.7059V11.1294C23.4346 10.8935 23.5283 10.6673 23.6951 10.5004C23.8619 10.3336 24.0881 10.2399 24.324 10.2399H27.7337V6.84211C27.7337 6.60621 27.8274 6.37997 27.9942 6.21316C28.161 6.04635 28.3873 5.95264 28.6232 5.95264L28.6113 5.9645Z" fill="#D8453E"/>
</svg>
