<svg width="51" height="46" viewBox="0 0 51 46" fill="none" xmlns="http://www.w3.org/2000/svg">
<circle cx="26" cy="26" r="20" fill="white"/>
<path fill-rule="evenodd" clip-rule="evenodd" d="M37.108 38.3604H37.4151C37.5293 38.3604 37.6388 38.4058 37.7196 38.4865C37.8004 38.5673 37.8457 38.6768 37.8457 38.7911V42.1686C37.8457 42.2828 37.8004 42.3924 37.7196 42.4731C37.6388 42.5539 37.5293 42.5993 37.4151 42.5993H27.5616C27.4474 42.5993 27.3379 42.5539 27.2571 42.4731C27.1763 42.3924 27.131 42.2828 27.131 42.1686V38.7751C27.131 38.6609 27.1763 38.5514 27.2571 38.4706C27.3379 38.3898 27.4474 38.3445 27.5616 38.3445C30.4487 38.3445 34.3406 38.1172 37.108 38.3445V38.3604ZM36.7771 37.4911H27.5656C27.4538 37.4839 27.3494 37.433 27.2748 37.3495C27.2002 37.2659 27.1614 37.1564 27.1669 37.0445C27.2028 36.247 27.2745 35.4773 27.3543 34.6798C27.434 34.0139 27.5018 33.4317 27.5896 32.9253C27.6632 32.4456 27.7875 31.9751 27.9604 31.5216C28.1375 31.0793 28.3808 30.6665 28.6822 30.2974C29.0533 29.8426 29.4687 29.4258 29.9223 29.0533C30.2533 28.7781 30.5484 28.5429 30.8993 28.2956L31.2502 28.0843L32.6259 27.3187C33.4696 26.8991 34.2873 26.4291 35.0743 25.911C36.0803 25.1974 37.0283 24.4053 37.9095 23.5424C38.6154 22.9323 39.6123 22.1347 40.2383 21.4847C40.6014 21.0415 41.0257 20.6521 41.4984 20.3283C41.8681 20.0582 42.3167 19.918 42.7745 19.9296C42.8775 19.9392 42.9784 19.9647 43.0735 20.0053C43.155 20.0418 43.2315 20.0887 43.3008 20.1449L43.3367 20.1808C43.4169 20.2547 43.4831 20.3425 43.5321 20.44C43.5762 20.525 43.611 20.6146 43.6358 20.7072C43.7078 21.0711 43.6661 21.4484 43.5162 21.7878C43.3695 22.154 43.1497 22.4865 42.8702 22.7648L37.0044 29.3125C36.9476 29.375 36.9108 29.453 36.8988 29.5366C36.8868 29.6202 36.9002 29.7054 36.9371 29.7814C36.974 29.8573 37.0327 29.9205 37.1059 29.9627C37.179 30.0049 37.2631 30.0243 37.3473 30.0183C37.4504 30.0127 37.548 29.9702 37.6224 29.8987C39.5524 27.7241 41.4958 25.5574 43.4523 23.3988C43.5957 23.261 43.7289 23.1131 43.8511 22.9562C43.9617 22.8149 44.0616 22.6656 44.1502 22.5096C45.171 20.8866 46.6783 16.568 47.5197 14.5622L47.5995 14.4386C47.7539 14.2716 47.9295 14.1254 48.1219 14.004H48.1458C48.3339 13.8885 48.5447 13.815 48.7639 13.7886C48.8643 13.7725 48.9666 13.7725 49.0669 13.7886C49.156 13.8086 49.2419 13.8408 49.3221 13.8843L49.366 13.9083C49.4747 13.9743 49.5706 14.0594 49.6491 14.1595C49.7202 14.2655 49.7791 14.3792 49.8246 14.4984C49.9979 15.0319 50.047 15.5979 49.9681 16.1533C49.8725 16.8832 49.7 17.6009 49.4537 18.2946C48.9234 20.109 48.409 21.9393 47.9145 23.7697C47.6906 24.765 47.3659 25.735 46.9455 26.6647C46.3817 27.729 45.682 28.7156 44.864 29.5996C43.9269 30.6762 43.0057 31.6452 42.1085 32.5424C41.2113 33.4397 40.3221 34.2811 39.4607 35.0945L37.128 37.3356C37.0876 37.3842 37.037 37.4233 36.9798 37.4502C36.9226 37.4771 36.8602 37.4911 36.797 37.4911H36.7771ZM23.4145 37.4911H14.223C14.1598 37.4911 14.0974 37.4771 14.0402 37.4502C13.983 37.4233 13.9324 37.3842 13.892 37.3356L12.7755 36.247L11.5433 35.0786C10.6661 34.2492 9.77282 33.4038 8.9115 32.5424C8.01428 31.6492 7.10111 30.6842 6.17199 29.6155C5.34572 28.7313 4.63796 27.7434 4.06652 26.6766C3.64759 25.7468 3.32426 24.7768 3.10152 23.7816C2.59509 21.9433 2.09265 20.0971 1.54634 18.2946C1.29934 17.6011 1.1269 16.8833 1.03194 16.1533C0.949394 15.5999 0.995793 15.0349 1.16752 14.5024C1.21137 14.3812 1.27032 14.266 1.34297 14.1595C1.41554 14.0518 1.50749 13.9585 1.61413 13.8843L1.66198 13.8604C1.74139 13.8142 1.82748 13.7806 1.91719 13.7607C2.01756 13.7445 2.11988 13.7445 2.22025 13.7607C2.43968 13.7858 2.65079 13.8594 2.83833 13.976H2.86625C3.06103 14.1005 3.23809 14.2507 3.39262 14.4227L3.47237 14.5503C4.30977 16.5441 5.83703 20.9065 6.8459 22.4976C6.93409 22.651 7.03549 22.7965 7.14896 22.9323C7.27095 23.0831 7.40425 23.2244 7.54773 23.3549C9.54154 25.3488 11.4237 27.7812 13.3816 29.8548C13.4608 29.9265 13.5639 29.9662 13.6707 29.9662C13.7776 29.9662 13.8806 29.9265 13.9598 29.8548C14.0033 29.8186 14.0386 29.7736 14.0634 29.7227C14.0881 29.6718 14.1018 29.6163 14.1034 29.5597C14.1074 29.5042 14.1003 29.4485 14.0825 29.3957C14.0647 29.343 14.0365 29.2944 13.9997 29.2527L8.12992 22.7648C7.84404 22.4991 7.61598 22.1774 7.46 21.8197C7.30616 21.4814 7.26426 21.1028 7.34037 20.7391C7.36343 20.646 7.39827 20.5562 7.44405 20.4719C7.49198 20.3726 7.55828 20.2833 7.63944 20.2087C7.71788 20.1384 7.80664 20.0806 7.90262 20.0372C7.99701 19.9985 8.09632 19.973 8.19771 19.9615H8.22164C8.67934 19.9499 9.12802 20.0901 9.49768 20.3602C9.9699 20.6832 10.393 21.0727 10.7538 21.5167C11.4277 22.2225 12.3488 22.9004 13.0826 23.5862C13.9655 24.4473 14.9134 25.2392 15.9178 25.9549C16.7077 26.4572 17.5266 26.9126 18.3702 27.3187L19.7419 28.0604L20.0888 28.2757C20.4397 28.5229 20.7388 28.7622 21.0658 29.0333C21.5215 29.4049 21.9384 29.8217 22.3099 30.2775C22.6101 30.6467 22.8521 31.0595 23.0277 31.5017C23.1988 31.9557 23.323 32.426 23.3986 32.9053C23.4823 33.4118 23.5541 33.9939 23.6298 34.6599C23.7136 35.4574 23.7774 36.223 23.8212 37.0206C23.8278 37.1331 23.7895 37.2437 23.7148 37.3281C23.6401 37.4125 23.535 37.464 23.4225 37.4712L23.4145 37.4911ZM13.8083 38.3524C16.5478 38.5957 20.5554 38.3524 23.4344 38.3524C23.5487 38.3524 23.6582 38.3978 23.739 38.4786C23.8197 38.5593 23.8651 38.6689 23.8651 38.7831V42.1606C23.8651 42.2748 23.8197 42.3844 23.739 42.4651C23.6582 42.5459 23.5487 42.5913 23.4344 42.5913H13.581C13.5246 42.5913 13.4688 42.5801 13.4168 42.5584C13.3648 42.5367 13.3176 42.5049 13.2779 42.4649C13.2382 42.4249 13.2069 42.3773 13.1857 42.3251C13.1645 42.2729 13.1538 42.217 13.1543 42.1606V38.7751C13.1538 38.7188 13.1645 38.6628 13.1857 38.6106C13.2069 38.5584 13.2382 38.5109 13.2779 38.4708C13.3176 38.4308 13.3648 38.399 13.4168 38.3773C13.4688 38.3556 13.5246 38.3444 13.581 38.3445H13.8083V38.3524Z" fill="#775CA6"/>
<path fill-rule="evenodd" clip-rule="evenodd" d="M27.0606 6.7735C27.3942 7.05662 27.4515 7.4699 28.0631 7.38535C28.5637 7.31601 28.5742 6.87102 28.7914 6.46757C29.1577 6.43178 29.525 6.57195 29.8633 6.66447C29.9252 7.21255 29.7351 7.5995 30.1281 7.87614C30.5825 8.19579 30.9088 7.84072 31.3289 7.76952C31.5646 7.93102 31.8619 8.38008 31.9262 8.69436C31.6569 9.03496 31.2347 9.12544 31.2957 9.70244C31.3523 10.2368 31.9016 10.2828 32.2383 10.491C32.1743 12.3421 31.2495 11.1277 30.7944 11.8126C30.471 12.2991 30.8857 12.6123 30.9135 13.0424C30.667 13.2772 30.2755 13.557 29.918 13.5824C29.7064 13.3083 29.5174 12.868 28.9349 12.9635C28.4415 13.0443 28.4339 13.4882 28.2249 13.8938C27.8847 13.902 27.3812 13.7711 27.1394 13.6669C27.0914 13.1681 27.2585 12.7512 26.8613 12.4641C26.3774 12.1146 26.1367 12.5162 25.6636 12.5815C25.4489 12.3922 25.1572 11.9717 25.0982 11.6448C25.325 11.3205 25.7988 11.2276 25.7263 10.651C25.6534 10.0701 25.1553 10.1437 24.8028 9.85892C24.7853 9.52463 24.9092 9.03255 25.0466 8.79188C25.0689 8.79096 26.6838 9.02828 26.3008 7.89894C26.1823 7.54944 25.9212 7.44635 26.2841 7.14265C26.4262 7.0238 26.8525 6.78926 27.0606 6.7735ZM24.9981 4.86079C25.1338 5.06623 25.2723 5.43371 25.2697 5.74391C24.8488 6.09915 24.5192 5.91059 24.5609 6.6756C24.728 6.97541 24.8905 7.05068 25.1371 7.19401C25.1025 7.50735 24.9207 7.86019 24.7325 8.06414C24.3112 8.03967 24.092 7.74579 23.7047 8.05265C23.3643 8.32261 23.5588 8.64151 23.5473 9.07204C23.2767 9.20609 22.9539 9.32754 22.6208 9.32754C21.9784 7.83238 21.3705 8.98712 21.1626 9.17161C20.8722 9.13582 20.5482 8.97433 20.34 8.77204C20.3743 8.37174 20.6715 8.10586 20.3444 7.72707C20.0193 7.35105 19.6987 7.68442 19.3578 7.55148C19.1985 7.36088 19.08 6.98727 19.0889 6.69284C19.4059 6.52616 19.7723 6.44216 19.8188 6.03352C19.8736 5.55238 19.4841 5.47543 19.2319 5.20028C19.2734 4.94515 19.434 4.6574 19.6104 4.42415C20.0588 4.39652 20.181 4.70838 20.5851 4.46809C20.9924 4.22576 20.801 3.90092 20.8386 3.41458C21.0877 3.24438 21.3926 3.13628 21.7058 3.13925C21.9294 3.46539 21.9639 3.79375 22.3454 3.86013C22.8116 3.94152 22.9303 3.58498 23.1803 3.2937C23.4748 3.3013 23.7945 3.52509 24.0165 3.65135C24.0081 4.08837 23.702 4.32328 23.9875 4.69967C24.2755 5.07902 24.6112 4.84299 24.9981 4.86079ZM17.2925 5.19676C15.0862 5.75244 16.529 9.40726 16.513 10.5577C15.9328 10.9291 15.7358 10.9699 15.3933 11.6164C14.7339 12.8617 14.8718 14.84 16.0498 15.7496C16.2803 15.9278 16.6065 15.9623 16.8166 16.1366C16.9568 16.503 17.072 17.3362 17.197 17.7769C17.3531 18.3281 17.5547 18.8052 17.801 19.2819C18.2722 20.1945 18.9263 21.106 19.511 21.683C20.7887 22.944 22.2712 24.4115 25.0429 24.395C27.9769 24.3774 29.3281 23.183 30.5596 21.6683C31.8745 20.0512 32.8077 18.722 33.2257 16.1001C34.2996 15.6302 34.843 15.0823 34.9767 13.6578C35.1441 11.8745 34.379 11.3702 33.6898 10.6354C33.8282 8.05524 34.7895 3.8566 31.9008 2.21627C30.7792 1.5792 29.9013 1.73161 28.9029 1.95428C27.7336 -1.17249 20.3388 0.0172923 18.2893 1.62611C16.8072 2.78938 17.3184 4.33589 17.2925 5.19676Z" fill="#775CA6"/>
<path fill-rule="evenodd" clip-rule="evenodd" d="M28.0945 8.85202C29.8583 8.24554 30.6361 10.8928 29.0047 11.4984C27.2763 12.1397 26.212 9.49948 28.0945 8.85202ZM26.3005 7.89901C26.6834 9.02835 25.0685 8.79102 25.0463 8.79195C24.9089 9.03261 24.785 9.5247 24.8024 9.85899C25.155 10.1438 25.6531 10.0702 25.726 10.6511C25.7985 11.2277 25.3246 11.3206 25.0978 11.6449C25.1568 11.9718 25.4485 12.3923 25.6633 12.5816C26.1364 12.5163 26.3771 12.1147 26.8609 12.4642C27.2581 12.7512 27.091 13.1682 27.1391 13.667C27.3809 13.7712 27.8844 13.9021 28.2245 13.8939C28.4335 13.4882 28.4411 13.0444 28.9346 12.9635C29.5171 12.868 29.706 13.3084 29.9176 13.5824C30.2752 13.557 30.6667 13.2772 30.9131 13.0425C30.8853 12.6123 30.4707 12.2992 30.7941 11.8127C31.2492 11.1278 32.174 12.3422 32.238 10.4911C31.9012 10.2828 31.3519 10.2369 31.2953 9.7025C31.2343 9.1255 31.6566 9.03502 31.9259 8.69442C31.8615 8.38015 31.5642 7.93109 31.3285 7.76959C30.9085 7.84079 30.5821 8.19585 30.1278 7.8762C29.7348 7.59957 29.9249 7.21262 29.8629 6.66454C29.5247 6.57202 29.1573 6.43185 28.791 6.46763C28.5739 6.87109 28.5633 7.31608 28.0628 7.38542C27.4512 7.46997 27.3939 7.05669 27.0603 6.77356C26.8522 6.78932 26.4258 7.02387 26.2838 7.14272C25.9209 7.44642 26.182 7.54951 26.3005 7.89901Z" fill="white"/>
<path fill-rule="evenodd" clip-rule="evenodd" d="M21.8738 5.10847C22.5403 4.8984 23.1473 5.33913 23.3124 5.85679C23.5219 6.51426 23.1227 7.21271 22.5461 7.36308C20.99 7.76876 20.3385 5.59258 21.8738 5.10847ZM24.9985 4.86076C24.6116 4.84297 24.276 5.07899 23.988 4.69964C23.7024 4.32326 24.0085 4.08834 24.0169 3.65133C23.7949 3.52506 23.4752 3.30127 23.1807 3.29367C22.9307 3.58495 22.812 3.94149 22.3458 3.8601C21.9643 3.79372 21.9298 3.46536 21.7062 3.13922C21.393 3.13625 21.0881 3.24435 20.839 3.41456C20.8014 3.90089 20.9928 4.22573 20.5855 4.46806C20.1814 4.70836 20.0592 4.39649 19.6108 4.42412C19.4345 4.65737 19.2739 4.94513 19.2323 5.20025C19.4845 5.4754 19.874 5.55235 19.8193 6.03349C19.7727 6.44214 19.4063 6.52613 19.0893 6.69281C19.0804 6.98725 19.1989 7.36085 19.3582 7.55145C19.6991 7.68439 20.0197 7.35102 20.3448 7.72704C20.672 8.10583 20.3747 8.37171 20.3404 8.77202C20.5486 8.9743 20.8726 9.13579 21.163 9.17158C21.3709 8.98709 21.9788 7.83235 22.6212 9.32751C22.9543 9.32751 23.2771 9.20607 23.5477 9.07201C23.5592 8.64149 23.3647 8.32258 23.7051 8.05262C24.0924 7.74577 24.3116 8.03964 24.7329 8.06412C24.9211 7.86016 25.1029 7.50733 25.1375 7.19398C24.8909 7.05066 24.7284 6.97538 24.5614 6.67557C24.5196 5.91056 24.8492 6.09913 25.2701 5.74388C25.2727 5.43369 25.1342 5.0662 24.9985 4.86076Z" fill="white"/>
<path fill-rule="evenodd" clip-rule="evenodd" d="M28.0946 8.85185C26.2121 9.49931 27.2764 12.1396 29.0048 11.4982C30.6362 10.8927 29.8584 8.24537 28.0946 8.85185Z" fill="#775CA6"/>
<path fill-rule="evenodd" clip-rule="evenodd" d="M21.8738 5.10875C20.3385 5.59286 20.99 7.76903 22.5461 7.36335C23.1227 7.21298 23.5219 6.51454 23.3124 5.85707C23.1473 5.3394 22.5403 4.89868 21.8738 5.10875Z" fill="#775CA6"/>
</svg>
