<svg width="43" height="53" viewBox="0 0 43 53" fill="none" xmlns="http://www.w3.org/2000/svg">
<circle cx="22" cy="25" r="20" fill="white"/>
<path d="M22.8596 3.28698C23.1087 3.01332 23.2704 2.67022 23.3237 2.30238C23.377 1.93454 23.3194 1.559 23.1584 1.2247C22.9975 0.890397 22.7406 0.612824 22.4213 0.428142C22.102 0.24346 21.735 0.16023 21.3682 0.189296C21.121 0.155649 20.8693 0.189378 20.6393 0.286992C20.4093 0.384605 20.2093 0.542557 20.06 0.744499C19.8759 0.897229 19.7344 1.09584 19.6495 1.32071C19.5646 1.54558 19.5392 1.78894 19.5759 2.02675C19.5759 2.69212 19.6544 2.82871 20.2431 3.3751C20.8318 3.92149 20.9321 3.96556 21.6735 3.88624C21.9047 3.89243 22.1339 3.841 22.3407 3.73648C22.5476 3.63197 22.7258 3.47759 22.8596 3.28698ZM21.3944 49.4085C21.3508 47.1304 21.2723 45.9098 21.1676 45.9142C21.063 45.9186 21.0412 47.1524 21.0978 49.501C21.1502 51.5367 21.2461 53.0261 21.3246 52.9997C21.4337 51.8059 21.457 50.6057 21.3944 49.4085ZM20.6705 47.5886C20.6269 46.2094 20.4176 45.9362 20.0251 46.7426C19.7416 47.3198 19.8506 48.3642 20.2693 49.1441L20.5222 49.6112L20.6138 49.219C20.6798 48.6783 20.6988 48.1327 20.6705 47.5886ZM22.4584 49.0383C22.6721 48.5977 22.6241 47.0995 22.393 46.8748C22.0442 46.5311 21.9831 46.6941 21.9569 48.0205C21.9569 48.9855 21.9831 49.3424 22.1183 49.3424C22.2535 49.3424 22.3756 49.2014 22.4584 49.0339V49.0383ZM23.7056 48.2716C24.665 46.6325 24.2638 45.3943 22.2753 43.8652L21.3377 43.1514C20.9346 42.8279 20.5715 42.4566 20.2562 42.0454C19.8681 41.499 19.8201 41.314 19.8637 40.5032L19.9117 39.5823L19.2619 39.1857C18.9906 38.9933 18.6859 38.8543 18.3636 38.7759C17.7051 38.7759 17.4086 40.8028 17.9013 41.9309C18.3941 43.0589 19.8114 44.2266 21.3072 44.8082C22.0878 45.1123 22.9948 46.064 23.13 46.7294C23.2326 47.4323 23.1835 48.1493 22.9861 48.8312C22.8902 49.1793 22.9076 49.197 23.1344 49.0031C23.3538 48.7726 23.5456 48.5167 23.7056 48.2408V48.2716ZM19.2576 48.1659C19.1137 47.1216 19.2576 46.4342 19.7198 45.9098C20.1821 45.3854 20.1036 45.0682 19.5105 44.9272C19.166 44.8479 19.0264 44.9272 18.7299 45.2885C18.4334 45.6498 18.3767 45.8701 18.4552 46.7867C18.4693 47.345 18.619 47.8913 18.8913 48.3774C19.0113 48.5814 19.158 48.7681 19.3273 48.9326C19.3481 48.676 19.3319 48.4178 19.2794 48.1659H19.2576ZM23.7667 43.0941C24.1394 42.766 24.4361 42.3591 24.6358 41.9022C24.8355 41.4453 24.9333 40.9496 24.9223 40.4503C24.8962 38.9521 23.9586 37.6963 21.9962 36.5242C20.8624 35.8501 19.7678 34.9115 19.4756 34.3651C19.3016 33.9923 19.2206 33.5822 19.2396 33.1705C19.2586 32.7588 19.3771 32.3581 19.5846 32.0033C20.0207 31.3556 20.0207 31.3732 18.6034 30.5139C17.6528 29.9631 17.5874 29.9631 16.9681 31.1793C16.6737 31.7549 16.506 32.3881 16.4767 33.0354C16.4473 33.6827 16.5569 34.3287 16.798 34.9291C17.0316 35.7418 17.4973 36.4668 18.1368 37.0133C18.7113 37.5867 19.3667 38.0708 20.0818 38.4498C22.0049 39.384 22.9469 40.6001 22.4148 41.4594C22.2515 41.8148 22.1752 42.2047 22.1924 42.5962C22.1924 43.8785 22.7681 44.0591 23.7667 43.1118V43.0941ZM21.5863 42.1203C21.5863 40.8337 21.4336 40.2917 21.0499 40.2961C20.8449 40.2961 20.9278 42.3935 21.1458 42.605C21.4729 42.9223 21.5819 42.8033 21.5819 42.1203H21.5863ZM20.5745 40.6574C20.5048 40.3974 20.496 40.3974 20.3914 40.6574C20.3281 40.8339 20.3281 41.0273 20.3914 41.2038C20.5091 41.4594 20.5179 41.4594 20.5745 41.2038C20.6072 41.0232 20.6072 40.838 20.5745 40.6574ZM24.5298 36.8371C25.0842 36.4495 25.5364 35.931 25.8472 35.3267C26.1581 34.7223 26.3181 34.0504 26.3134 33.3693C26.4254 32.637 26.2705 31.8885 25.8774 31.263C25.6474 30.7965 25.3538 30.3649 25.0052 29.9808C23.9235 29.1519 22.7854 28.4009 21.5993 27.7335C21.2984 27.5881 20.6138 27.1871 20.073 26.8522C19.2314 26.3147 19.0482 26.112 18.7648 25.407C18.2371 24.085 18.3287 23.1377 19.0526 22.2961C19.4887 21.8158 19.3186 21.569 18.2938 21.0711L17.4216 20.6305L16.8896 21.2606C16.0698 22.2476 15.7994 23.0628 15.8256 24.5125C15.7803 25.2931 15.959 26.0703 16.3401 26.7509C17.0102 28.0046 18.0289 29.0324 19.2706 29.7076C21.2243 30.8136 22.8117 31.9108 23.0951 32.3514C23.2789 32.678 23.3863 33.0427 23.4091 33.4177C23.3739 34.1546 23.0909 34.8572 22.6067 35.4094C22.2055 35.7575 22.3494 36.1585 23.0428 36.6344C23.8365 37.172 23.9586 37.1896 24.5255 36.8239L24.5298 36.8371ZM21.7345 34.5105C21.7345 32.3999 21.7345 32.3558 21.2243 32.1002L20.7577 31.8711L20.7839 33.4882C20.81 34.9688 20.8493 35.1539 21.1589 35.4359C21.3508 35.6077 21.5557 35.6958 21.595 35.6253C21.6937 35.2566 21.732 34.8741 21.7084 34.4929L21.7345 34.5105ZM22.7114 33.995C22.7114 33.1445 22.4105 33.2503 22.3756 34.1095C22.3494 34.7132 22.3756 34.8454 22.5195 34.7C22.6498 34.4888 22.7165 34.2438 22.7114 33.995ZM20.3521 33.1137C20.121 32.8934 19.9597 33.5543 20.1123 34.0567C20.23 34.4621 20.2388 34.4576 20.3739 33.8716C20.4655 33.4706 20.4568 33.2195 20.3521 33.1137ZM25.1491 27.9803C25.7643 27.5192 26.2556 26.91 26.5786 26.2082C26.9015 25.5064 27.0457 24.7341 26.9981 23.9617C27.0233 23.4026 26.9125 22.8459 26.6754 22.3401C26.3789 21.7453 25.0357 20.2691 24.8177 20.2691C24.4326 20.1014 24.0608 19.904 23.7056 19.6787C22.8 19.1942 21.849 18.8016 20.8667 18.5066C18.7866 17.8809 17.4042 17.1494 16.7021 16.3034C16.3325 15.8926 16.1301 15.356 16.1352 14.8008C16.0436 13.8182 16.1614 13.6596 16.6149 14.1487C17.2472 14.8317 18.7953 14.5893 19.4451 13.7345C19.7896 13.2938 19.7503 12.9501 19.3361 12.7827C18.7637 12.5598 18.1456 12.4834 17.5369 12.5603C16.9283 12.6371 16.3478 12.8649 15.8474 13.2233C15.2371 13.6351 14.8064 14.2677 14.6442 14.9908C14.4819 15.7139 14.6004 16.4723 14.9752 17.1098C15.6904 18.4317 16.6803 19.1719 20.0469 20.7803C22.8814 22.133 23.3917 22.4503 23.8365 23.1509C24.4514 24.1115 24.1068 25.6273 23.0428 26.6451C22.4497 27.2092 22.3974 27.4515 22.7942 27.7952C23.2121 28.1323 23.697 28.3743 24.2159 28.5046C24.5577 28.3782 24.8739 28.1901 25.1491 27.9494V27.9803ZM21.9351 25.1161C22.0093 23.0804 22.0049 23.0584 21.6386 22.7852C21.1633 22.4283 20.7272 22.2961 20.5876 22.4635C20.5176 23.1962 20.5176 23.934 20.5876 24.6667C20.7141 26.6716 20.7272 26.7421 21.1066 26.9404C21.8218 27.3193 21.8392 27.2753 21.9177 25.1117L21.9351 25.1161ZM23.1823 25.852C23.3727 25.5949 23.4799 25.2846 23.4892 24.9637C23.4986 24.6427 23.4097 24.3266 23.2347 24.0586C23.0559 23.781 22.8422 23.5959 22.7593 23.6488C22.5631 23.7766 22.6067 26.2221 22.8073 26.2221C22.8902 26.2221 23.0559 26.0547 23.1823 25.852ZM20.1559 24.6314C20.1297 23.4373 20.0818 23.1509 19.8986 23.1553C19.637 23.1553 19.4407 23.5078 19.3055 24.2128C19.2469 24.6281 19.3267 25.0513 19.5323 25.4158C20.0294 26.4997 20.1864 26.297 20.1559 24.6314ZM25.354 19.4407C26.8062 18.6432 28.0273 16.7969 28.1232 15.2723C28.1755 14.391 28.1232 14.2941 27.6871 13.7213C27.377 13.293 26.9674 12.9484 26.4943 12.7179C26.0213 12.4873 25.4994 12.3779 24.9747 12.3994C23.9499 12.3994 23.1431 12.7298 23.069 13.1484C23.127 13.443 23.2805 13.7096 23.505 13.9063C23.9062 14.347 24.085 14.4131 24.8831 14.4571C25.6811 14.5012 25.8555 14.4571 26.2742 14.0914C26.4417 13.9244 26.6328 13.7834 26.8411 13.6728C26.9719 13.6728 26.7931 14.9286 26.61 15.3164C25.9003 16.5927 24.771 17.5779 23.4178 18.1012C22.6329 18.3744 22.7332 18.6696 23.7929 19.2072C24.7479 19.6919 24.9092 19.7183 25.3889 19.454L25.354 19.4407ZM22.0616 18.0659C22.1139 17.4931 22.1488 16.4047 22.2404 12.7166C22.2971 10.4826 22.3669 8.57462 22.3974 8.46887C22.4279 8.36311 22.4497 7.4554 22.4497 6.44194V4.60007L21.3682 4.52957C21.0008 4.48435 20.6302 4.47108 20.2606 4.48991C20.2344 4.51635 20.2388 7.49506 20.2606 11.0995C20.3042 16.2505 20.3565 17.709 20.5091 17.7839C20.9214 18.0018 21.3617 18.1605 21.8174 18.2554C21.8686 18.2592 21.9192 18.2431 21.959 18.2103C21.9987 18.1775 22.0245 18.1306 22.0311 18.0792L22.0616 18.0659ZM23.7711 17.4579C24.4688 17.1186 25.5546 16.136 25.5503 15.8672C25.5388 15.8146 25.5082 15.7683 25.4646 15.7373C25.4211 15.7064 25.3676 15.693 25.3148 15.6997C25.1883 15.6997 25.0968 15.6248 25.1186 15.5235C25.1404 15.4221 24.9092 15.2855 24.6171 15.2106C24.2175 15.0775 23.8462 14.8697 23.5225 14.5981L22.9687 14.1222L22.9381 15.1093C22.9094 15.464 22.927 15.8211 22.9905 16.1712C23.2589 16.1665 23.5233 16.105 23.7667 15.9905C24.7174 15.6424 24.6389 15.8848 23.6664 16.3695C22.8858 16.7484 22.6678 17.0701 22.8596 17.5504C22.973 17.8368 23.0035 17.8324 23.7711 17.4579ZM19.9771 17.1847C19.8637 16.9027 17.9798 15.8628 17.6092 15.8628C17.3388 15.8628 17.3606 15.92 17.7661 16.3342C18.7299 17.3125 20.2649 17.9073 19.9771 17.2155V17.1847ZM19.8724 16.158C19.9771 15.6865 19.9858 14.2456 19.8724 14.25C19.6623 14.3498 19.4671 14.4789 19.2925 14.6334C18.9788 14.8749 18.6394 15.0803 18.2807 15.2459L17.7574 15.4706L18.6819 15.9112C19.8201 16.4752 19.7852 16.4708 19.8637 16.136L19.8724 16.158ZM29.1393 12.7783C29.4639 12.4297 29.764 12.0587 30.0376 11.6679C30.2818 11.2713 30.2775 11.2537 29.523 10.465C29.2503 10.1618 28.959 9.8763 28.6509 9.61012C28.3455 9.7483 28.071 9.94767 27.8441 10.1962C26.8237 11.1391 26.187 11.4123 24.9354 11.4432C24.4467 11.4627 23.9572 11.4495 23.4702 11.4035C23.1169 11.3374 23.082 11.3771 23.0908 11.875C23.0908 12.4787 23.0908 12.4743 24.3162 12.1526C24.8691 12.0461 25.4384 12.0635 25.9839 12.2036C26.5295 12.3437 27.0379 12.603 27.4734 12.9634C27.7034 13.1886 27.9785 13.3614 28.2802 13.4701C28.6192 13.3017 28.9171 13.0594 29.1524 12.7607L29.1393 12.7783ZM15.4418 13.0559C15.7347 12.8119 16.0626 12.6143 16.4143 12.4699C16.9528 12.1954 17.5614 12.0939 18.1586 12.179C18.5881 12.1979 19.0132 12.2734 19.4233 12.4038C19.7852 12.5932 19.9073 12.4699 19.8986 11.9279V11.4872L18.6252 11.5181C17.9478 11.5871 17.2639 11.4888 16.6323 11.2317C15.7805 10.767 15.0532 10.1001 14.5129 9.28845C14.3472 9.01526 14.2862 9.05051 13.6408 9.78197C13.3531 10.0708 13.117 10.4077 12.943 10.7778C12.943 11.2184 13.6102 12.1967 14.2513 12.721C14.9708 13.3203 15.1889 13.3776 15.4549 13.0427L15.4418 13.0559ZM32.6236 10.9761C32.9899 10.8219 32.9158 10.6544 32.3227 10.2975C31.8247 9.90806 31.3943 9.43748 31.0493 8.9051C30.3952 7.95332 30.26 7.83876 29.8152 7.84757C28.7337 7.84757 28.6945 8.52615 29.7105 9.58368C30.266 10.2569 31.0215 10.7313 31.8648 10.9364C32.1177 10.9937 32.3401 11.051 32.3532 11.0598C32.4469 11.0451 32.5379 11.0169 32.6236 10.9761ZM19.3709 10.6148C19.7852 10.5222 19.8768 10.1389 19.8506 8.54818L19.8245 7.26152L18.9043 7.38049L17.9798 7.49065L17.2734 6.78563C16.4012 5.9308 16.3401 5.46372 17.0597 4.84683C17.3823 4.58267 17.6391 4.24575 17.8095 3.86312C17.98 3.48049 18.0592 3.06282 18.0409 2.64364C18.066 2.37431 18.0245 2.10289 17.9203 1.85372C17.816 1.60455 17.6522 1.38542 17.4434 1.21598C16.6541 0.369957 15.6424 -0.000177735 14.1946 0.0835433C13.2483 0.123201 12.9212 0.224547 11.8136 0.806188C11.1071 1.18073 10.1434 1.75796 9.67239 2.08844L7.53993 3.59101C5.37449 5.1885 3.05252 6.55724 0.610521 7.67572L0 7.96654L0.436086 8.18686C1.41387 8.59329 2.5109 8.59329 3.48869 8.18686C5.31153 7.49065 10.0998 4.31366 10.5402 3.52492C10.9022 2.88159 11.0984 3.04022 11.1158 3.99199C11.1749 4.90601 11.5787 5.76231 12.244 6.3845C12.9092 7.0067 13.7853 7.3474 14.6917 7.33643C14.9708 7.33643 15.1976 7.39812 15.1976 7.48625C15.1971 7.50805 15.1922 7.52951 15.1833 7.54937C15.1744 7.56924 15.1616 7.58709 15.1457 7.60188C15.1299 7.61667 15.1113 7.6281 15.0909 7.63548C15.0706 7.64287 15.0491 7.64606 15.0275 7.64488C14.7484 7.64488 14.9926 8.81697 15.3895 9.35455C15.9609 10.0499 16.7501 10.5271 17.6266 10.7073C18.2084 10.8114 18.8065 10.7737 19.3709 10.5971V10.6148ZM36.2562 10.3768C36.2562 10.2931 36.06 10.1124 35.8201 9.97585C34.9263 9.48053 34.0947 8.87841 33.3431 8.18245C32.0349 6.92664 32.1047 6.95308 31.5726 7.30118C31.3153 7.46422 31.106 7.71097 31.1104 7.84757C31.1104 8.24855 32.9071 9.8084 33.8141 10.205C34.6514 10.5707 36.2606 10.6985 36.2562 10.3945V10.3768ZM11.8659 10.3768C12.3188 10.0994 12.7425 9.77606 13.1306 9.41183C14.2993 8.31024 14.3385 7.95332 13.3093 7.78147C12.7468 7.68453 12.6988 7.71097 11.7089 8.78613C11.2597 9.26773 10.779 9.7182 10.2698 10.1345C9.78577 10.465 9.74216 10.6456 10.1259 10.7426C10.735 10.7942 11.3448 10.6525 11.8703 10.3372L11.8659 10.3768ZM25.8207 10.4121C26.2977 10.2602 26.7361 10.0049 27.1052 9.66388C27.4743 9.32289 27.7652 8.90451 27.9575 8.43802C28.1581 7.8696 28.1668 7.68894 28.0098 7.49947C27.8528 7.30999 27.8354 7.26593 27.8659 7.26152L29.1044 7.19983C30.1641 7.12492 30.369 7.05002 30.9621 6.60938C31.4538 6.25361 31.8353 5.76406 32.0622 5.19772C32.2892 4.63137 32.3523 4.01153 32.2442 3.41035C32.1134 2.87718 32.628 3.21647 32.8722 3.82455C33.1164 4.43263 34.3767 5.55626 36.9409 7.34965C39.021 8.79494 41.5328 9.35895 42.61 8.62309C43.1813 8.22652 43.1289 7.97976 42.4268 7.78147C40.9136 7.34084 38.0005 5.63557 34.7779 3.26935C30.6132 0.206922 29.1785 -0.352687 26.8367 0.176077C26.3483 0.286236 25.4151 1.18954 25.184 1.7844C24.9828 2.35272 24.9533 2.96864 25.0993 3.55393C25.2453 4.13921 25.5601 4.66745 26.0038 5.07156L26.6013 5.66201L26.2524 6.16874C25.998 6.65339 25.5797 7.02951 25.0738 7.2285C24.5679 7.42748 24.008 7.43608 23.4963 7.25271L23.0602 7.12933L23.1126 8.71562V10.2887L23.6184 10.4253C24.3355 10.611 25.0889 10.5973 25.7989 10.3856L25.8207 10.4121ZM38.7724 9.92738C39.0341 9.82162 39.1038 9.39421 38.8596 9.39861C38.6154 9.40302 35.4494 7.27474 34.3331 6.31415C33.1382 5.27425 32.8504 5.13765 32.6977 5.56507C32.471 6.19518 32.6367 6.60057 33.4478 7.38931C35.3361 9.22236 37.7302 10.368 38.7724 9.9406V9.92738ZM9.2145 9.89213C9.86488 9.50117 10.4898 9.06846 11.0853 8.59665L12.2671 7.66691L11.7743 7.13374C11.5959 6.92074 11.3801 6.74296 11.1376 6.60938C10.8029 6.8252 10.4942 7.07953 10.2175 7.36727C9.32199 8.24095 8.32477 9.00147 7.24775 9.63215C6.46716 10.0728 6.42791 10.249 7.10384 10.3195C7.84246 10.4034 8.58776 10.2376 9.22322 9.84806L9.2145 9.89213ZM6.65904 9.07695C7.47888 8.63631 10.8542 6.40669 10.8498 6.27449C10.7187 5.74165 10.5022 5.23409 10.2088 4.77192C10.1434 4.77192 9.21014 5.46813 8.12865 6.31856C6.42791 7.6625 4.32161 8.96238 3.80703 8.96238C3.44072 8.96238 3.68057 9.27523 4.1559 9.40302C4.57234 9.52657 5.0095 9.56217 5.44014 9.50759C5.87079 9.453 6.2857 9.30942 6.65904 9.08576V9.07695Z" fill="#775CA6"/>
</svg>
