<svg width="35" height="31" viewBox="0 0 35 31" fill="none" xmlns="http://www.w3.org/2000/svg">
<path fill-rule="evenodd" clip-rule="evenodd" d="M29.5754 28.8081L29.5765 28.8052L29.6063 28.7309L34.7292 2.90246V2.81857C34.7292 2.17503 34.4914 1.61323 33.974 1.27625C33.5211 0.981283 33.0005 0.960277 32.6354 0.987987C32.2493 1.01729 31.8852 1.11367 31.6332 1.19389C31.5035 1.23517 31.395 1.27493 31.3173 1.30501C31.2784 1.32011 31.2468 1.33292 31.2239 1.34246L31.2013 1.35195L2.63829 12.5568L2.63043 12.5596C2.615 12.5652 2.5946 12.5728 2.56996 12.5824C2.52084 12.6016 2.45397 12.6289 2.37542 12.6645C2.22119 12.7344 2.0081 12.8423 1.792 12.9903C1.42495 13.2416 0.726052 13.8367 0.844067 14.7801C0.941819 15.5615 1.48046 16.0577 1.8436 16.3147C2.03826 16.4524 2.22449 16.5517 2.36087 16.6167C2.42996 16.6496 2.48866 16.6748 2.53237 16.6926C2.55429 16.7015 2.57261 16.7086 2.58679 16.714L2.60494 16.7208L2.61654 16.7251L7.61383 18.4075C7.59696 18.721 7.62806 19.0407 7.71121 19.3561L10.2144 28.8517C10.5112 29.9776 11.5298 30.7619 12.6941 30.761C13.7378 30.7603 14.6634 30.1289 15.0566 29.1869L18.9648 25.0082L25.6768 30.154L25.7722 30.1957C26.382 30.4618 26.9518 30.5461 27.4727 30.475C27.9928 30.4039 28.4062 30.1858 28.7167 29.9373C29.0223 29.6929 29.2317 29.417 29.3634 29.2093C29.4303 29.1037 29.4802 29.011 29.5148 28.9412C29.5321 28.9061 29.5458 28.8764 29.5561 28.8533L29.569 28.8236L29.5735 28.8126L29.5754 28.8081ZM10.189 18.7029C10.1321 18.4871 10.2214 18.2592 10.4098 18.1396L27.3599 7.37555C27.3599 7.37555 28.3569 6.77029 28.3212 7.37555C28.3212 7.37555 28.4992 7.48243 27.9649 7.9808C27.4582 8.45414 15.8842 19.6284 14.713 20.7592C14.6454 20.8244 14.6051 20.8993 14.5813 20.9902L12.6922 28.1985L10.189 18.7029Z" fill="white"/>
</svg>
