<svg width="40" height="41" viewBox="0 0 40 41" fill="none" xmlns="http://www.w3.org/2000/svg">
<path d="M4.06163 36.441C3.92821 36.9484 4.36929 37.4167 4.85531 37.2837L12.3684 35.2278C14.74 36.5736 17.4101 37.2885 20.1287 37.2885H20.1367C29.0826 37.2885 36.3749 29.6932 36.3749 20.3568C36.3749 15.8316 34.6888 11.5754 31.6236 8.37906C28.5583 5.18286 24.4846 3.4165 20.1366 3.4165C11.1908 3.4165 3.89844 11.0118 3.89844 20.3484C3.89742 23.3186 4.64577 26.2368 6.06836 28.81L4.06163 36.441ZM14.9901 12.2483C15.2885 12.2567 15.6192 12.2736 15.9339 13.0054C16.1426 13.4926 16.4941 14.3895 16.7805 15.1201L16.7805 15.1201C17.0034 15.6886 17.1867 16.1564 17.2326 16.2522C17.3375 16.4708 17.402 16.7232 17.2649 17.0175C17.2487 17.0522 17.2334 17.0854 17.2187 17.1174C17.1087 17.3565 17.0304 17.5267 16.8455 17.7493C16.7694 17.8408 16.6902 17.9411 16.6112 18.041C16.4724 18.2168 16.3344 18.3914 16.2162 18.5148C16.0065 18.7333 15.7886 18.969 16.0306 19.4063C16.2727 19.8437 17.1197 21.282 18.3701 22.4428C19.7143 23.6965 20.8832 24.2249 21.474 24.4919L21.4741 24.492C21.5888 24.5438 21.6817 24.5858 21.7499 24.6214C22.1694 24.84 22.4194 24.8064 22.6614 24.512C22.9035 24.2175 23.7101 23.2334 23.9925 22.7961C24.2668 22.3587 24.5491 22.426 24.9363 22.5774C25.3235 22.7288 27.3885 23.7886 27.808 24.0072C27.8909 24.0505 27.9684 24.0894 28.0403 24.1256C28.3321 24.2722 28.5305 24.3718 28.6146 24.5204C28.7195 24.7054 28.7195 25.5802 28.3727 26.6064C28.0178 27.6325 26.3076 28.6167 25.5332 28.6924C25.4599 28.6996 25.3869 28.7088 25.3119 28.7183L25.3118 28.7184C24.6021 28.8083 23.7012 28.9225 20.4915 27.5989C16.5365 25.9695 13.9257 21.927 13.3979 21.1097C13.3562 21.0451 13.3275 21.0007 13.3122 20.9792L13.3032 20.9666C13.0631 20.63 11.5939 18.5706 11.5939 16.4457C11.5939 14.4127 12.5499 13.3543 12.9859 12.8716C13.0135 12.841 13.0391 12.8127 13.0622 12.7866C13.4493 12.3493 13.9011 12.24 14.1834 12.24C14.4658 12.24 14.7481 12.24 14.9901 12.2483Z" fill="white"/>
<path d="M4.06163 36.441C3.92821 36.9484 4.36929 37.4167 4.85531 37.2837L12.3684 35.2278C14.74 36.5736 17.4101 37.2885 20.1287 37.2885H20.1367C29.0826 37.2885 36.3749 29.6932 36.3749 20.3568C36.3749 15.8316 34.6888 11.5754 31.6236 8.37906C28.5583 5.18286 24.4846 3.4165 20.1366 3.4165C11.1908 3.4165 3.89844 11.0118 3.89844 20.3484C3.89742 23.3186 4.64577 26.2368 6.06836 28.81L4.06163 36.441ZM14.9901 12.2483C15.2885 12.2567 15.6192 12.2736 15.9339 13.0054C16.1426 13.4926 16.4941 14.3895 16.7805 15.1201L16.7805 15.1201C17.0034 15.6886 17.1867 16.1564 17.2326 16.2522C17.3375 16.4708 17.402 16.7232 17.2649 17.0175C17.2487 17.0522 17.2334 17.0854 17.2187 17.1174C17.1087 17.3565 17.0304 17.5267 16.8455 17.7493C16.7694 17.8408 16.6902 17.9411 16.6112 18.041C16.4724 18.2168 16.3344 18.3914 16.2162 18.5148C16.0065 18.7333 15.7886 18.969 16.0306 19.4063C16.2727 19.8437 17.1197 21.282 18.3701 22.4428C19.7143 23.6965 20.8832 24.2249 21.474 24.4919L21.4741 24.492C21.5888 24.5438 21.6817 24.5858 21.7499 24.6214C22.1694 24.84 22.4194 24.8064 22.6614 24.512C22.9035 24.2175 23.7101 23.2334 23.9925 22.7961C24.2668 22.3587 24.5491 22.426 24.9363 22.5774C25.3235 22.7288 27.3885 23.7886 27.808 24.0072C27.8909 24.0505 27.9684 24.0894 28.0403 24.1256C28.3321 24.2722 28.5305 24.3718 28.6146 24.5204C28.7195 24.7054 28.7195 25.5802 28.3727 26.6064C28.0178 27.6325 26.3076 28.6167 25.5332 28.6924C25.4599 28.6996 25.3869 28.7088 25.3119 28.7183L25.3118 28.7184C24.6021 28.8083 23.7012 28.9225 20.4915 27.5989C16.5365 25.9695 13.9257 21.927 13.3979 21.1097C13.3562 21.0451 13.3275 21.0007 13.3122 20.9792L13.3032 20.9666C13.0631 20.63 11.5939 18.5706 11.5939 16.4457C11.5939 14.4127 12.5499 13.3543 12.9859 12.8716C13.0135 12.841 13.0391 12.8127 13.0622 12.7866C13.4493 12.3493 13.9011 12.24 14.1834 12.24C14.4658 12.24 14.7481 12.24 14.9901 12.2483Z" stroke="white"/>
</svg>
