<svg width="42" height="41" viewBox="0 0 42 41" fill="none" xmlns="http://www.w3.org/2000/svg">
<path fill-rule="evenodd" clip-rule="evenodd" d="M12.2575 8.35487C17.9559 7.90905 23.6805 7.90905 29.3789 8.35487L33.2068 8.65435C35.3389 8.82115 37.0832 10.4191 37.4356 12.5285C38.3175 17.8064 38.3175 23.1941 37.4356 28.4719C37.0832 30.5813 35.3389 32.1793 33.2068 32.3461L29.3789 32.6456C23.6805 33.0914 17.9559 33.0914 12.2575 32.6456L8.42964 32.3461C6.29751 32.1793 4.55327 30.5813 4.20082 28.4719C3.31897 23.1941 3.31897 17.8064 4.20082 12.5285C4.55327 10.4191 6.29751 8.82115 8.42964 8.65435L12.2575 8.35487ZM17.4015 24.7201V16.2804C17.4015 15.882 17.8361 15.636 18.1777 15.8409L25.2107 20.0608C25.5425 20.2598 25.5425 20.7406 25.2107 20.9397L18.1777 25.1595C17.8361 25.3645 17.4015 25.1184 17.4015 24.7201Z" fill="white"/>
</svg>
